<?xml version="1.0" encoding="utf-8"?>
<!-- Generator: Adobe Illustrator 19.2.1, SVG Export Plug-In . SVG Version: 6.00 Build 0)  -->
<svg version="1.1" id="Layer_1" xmlns="http://www.w3.org/2000/svg" xmlns:xlink="http://www.w3.org/1999/xlink" x="0px" y="0px"
	 viewBox="0 0 109.6 45" style="enable-background:new 0 0 109.6 45;" xml:space="preserve">
<style type="text/css">
	.st0{fill:#303F9F;}
</style>
<title>logo-manager</title>
<g>
	<path class="st0" d="M24.5,19.8c0,3.8,0,6.2,0.1,7.2H26c0.1,0.2,0.2,0.5,0.2,0.8c0,0.2,0,0.4-0.1,0.5c-0.1,0.1-0.3,0.1-0.6,0.1
		h-4.8c-0.1-0.3-0.2-0.6-0.2-0.8c0-0.2,0-0.3,0.1-0.4c0.1-0.1,0.3-0.1,0.5-0.1h0.5c0.1-1.3,0.1-3.2,0.1-5.5c0-1.8-0.2-3.1-0.6-3.7
		c-0.4-0.6-1-0.9-1.9-0.9c-0.6,0-1.1,0.2-1.7,0.6c-0.5,0.4-0.8,1.2-0.8,2.3v2.8c0,1.6,0,3.1,0.1,4.4h1.1c0.1,0.2,0.2,0.5,0.2,0.8
		c0,0.2,0,0.4-0.1,0.5c-0.1,0.1-0.3,0.1-0.6,0.1h-4.9c-0.1-0.3-0.2-0.6-0.2-0.8c0-0.2,0-0.3,0.1-0.4C12.6,27,12.7,27,13,27h0.9
		c0.1-1.4,0.1-3.2,0.1-5.3c0-2.6-0.1-4.2-0.3-4.6c-0.2-0.4-0.6-0.6-1.2-0.6c-0.1-0.3-0.2-0.5-0.2-0.8c0-0.2,0.1-0.4,0.3-0.5
		c0.2-0.1,1.4-0.1,3.6-0.2c0.1,0.4,0.1,0.9,0,1.6c0.9-0.6,1.7-1,2.6-1.3s1.6-0.4,2.3-0.4c0.9,0,1.6,0.2,2,0.5c0.5,0.3,0.8,0.7,1,1.2
		c0.8-0.5,1.6-1,2.4-1.2s1.6-0.4,2.2-0.4c1.1,0,2,0.3,2.6,0.8c0.6,0.6,0.9,1.6,0.9,3.2c0,4.8,0.1,7.4,0.2,7.7c0.1,0.3,0.5,0.4,1,0.4
		c0.1,0.3,0.1,0.5,0.1,0.8c0,0.2-0.1,0.4-0.2,0.5s-0.4,0.1-0.8,0.1c-1.2,0-2,0-2.3,0s-0.5-0.1-0.6-0.3c-0.1-0.2-0.1-0.4-0.1-0.8
		v-5.8c0-1.8-0.2-3.1-0.6-3.7s-1-0.9-1.9-0.9c-0.6,0-1.1,0.2-1.7,0.6C24.8,17.9,24.5,18.7,24.5,19.8z"/>
	<path class="st0" d="M47.3,16.7C46.9,18,46,20.8,44.7,25c-1.3,4.2-2.3,6.7-2.9,7.5c-0.6,0.8-1.3,1.3-2.1,1.5
		c-0.8,0.2-1.7,0.3-2.7,0.3c-1,0-1.6-0.1-1.9-0.2c-0.3-0.1-0.4-0.4-0.4-0.8c0-0.5,0.2-0.9,0.5-1.3c1.7,0.3,2.9,0.5,3.7,0.4
		c0.8-0.1,1.6-1.4,2.4-3.8c-0.7,0-1.1-0.1-1.2-0.1s-0.5-1.6-1.4-4.5c-0.9-3-1.4-4.8-1.7-5.5s-0.4-1.1-0.5-1.4s-0.3-0.4-0.5-0.5
		c-0.2-0.1-0.5-0.1-0.8-0.1c-0.1-0.3-0.2-0.6-0.2-0.8c0-0.3,0.2-0.5,0.5-0.5c0.3-0.1,0.9-0.1,1.9-0.1c0.7,0,1.2,0,1.5,0.1
		c0.3,0.1,0.4,0.2,0.5,0.5s0.2,0.9,0.5,1.9c0.2,1,0.6,2.8,1.3,5.2c0.7,2.4,1,3.6,1.1,3.6c0.1,0,0.5-1.4,1.2-4.2s1.2-4.6,1.3-5.5
		h-0.7c-0.1-0.3-0.2-0.5-0.2-0.8s0.1-0.5,0.2-0.6c0.1-0.1,0.3-0.2,0.5-0.2h3.8c0.1,0.3,0.2,0.5,0.2,0.8c0,0.3-0.1,0.5-0.2,0.6
		c-0.1,0.1-0.3,0.1-0.6,0.1H47.3z"/>
</g>
<title>logo-manager</title>
<g>
	<path class="st0" d="M57.8,27.3c-0.7,0.3-1.4,0.6-2.3,0.9s-1.7,0.4-2.4,0.4c-1.3,0-2.3-0.3-2.9-0.9c-0.6-0.6-0.9-1.4-0.9-2.5
		c0-1.5,0.5-2.6,1.6-3.4s2.7-1.1,4.9-1.1h1.5c-0.1-1.4-0.3-2.3-0.7-2.8c-0.4-0.5-0.9-0.8-1.7-0.8c-0.4,0-0.9,0.1-1.3,0.2
		c-0.3,0.6-0.5,0.9-0.6,0.9c-0.1,0-0.4,0.1-0.9,0.2c-0.6,0.1-1,0.1-1.2-0.1c-0.2-0.2-0.5-0.6-0.7-1.1s-0.4-1-0.4-1.3
		c0-0.2,0.1-0.4,0.3-0.5c0.2-0.1,0.9-0.3,2-0.4c1.2-0.1,2.4-0.2,3.8-0.2c1.6,0,2.8,0.3,3.7,0.8c0.9,0.5,1.3,1.6,1.3,3.2v3.6
		c0,2,0.1,3.2,0.3,3.7c0.2,0.5,0.5,0.6,0.9,0.5c0.1,0.3,0.2,0.5,0.2,0.7c0,0.4-0.2,0.7-0.7,0.9s-1.1,0.3-1.9,0.3
		c-0.4,0-0.6,0-0.8-0.1C58.5,28.3,58.2,28,57.8,27.3z M57.2,22.9c-0.6-0.1-1.3-0.2-2-0.2c-0.8,0-1.3,0.1-1.6,0.4
		c-0.3,0.3-0.5,0.7-0.5,1.4c0,0.6,0.2,1.1,0.5,1.4c0.3,0.3,0.8,0.5,1.4,0.5c0.5,0,0.9-0.1,1.3-0.3c0.4-0.2,0.6-0.5,0.7-0.9
		c0.1-0.4,0.2-0.9,0.2-1.5V22.9z"/>
	<path class="st0" d="M68.4,14.8c0,0.3,0,0.7,0,1.1c0.8-0.4,1.5-0.7,2.3-0.9c0.8-0.2,1.6-0.4,2.4-0.4c1.7,0,3,0.5,3.8,1.4
		c0.8,1,1.2,2.5,1.2,4.5c0,2.8-0.6,4.8-1.8,6.1c-1.2,1.3-2.9,1.9-4.9,1.9c-0.5,0-0.9,0-1.2-0.1c-0.3,0-0.5-0.1-0.7-0.1
		c0,1.3,0,2.7,0.1,4h1.9c0.2,0.3,0.2,0.6,0.2,1c0,0.3-0.1,0.5-0.2,0.7c-0.1,0.1-0.4,0.2-0.8,0.2h-6.6c-0.2-0.4-0.2-0.7-0.2-1.1
		c0-0.3,0.1-0.5,0.2-0.6s0.3-0.2,0.6-0.2h1c0-1.3,0.1-3.1,0.1-5.3v-5.2c0-2.5-0.1-4-0.4-4.5c-0.2-0.5-0.7-0.7-1.2-0.7
		c-0.2-0.4-0.2-0.7-0.2-1.1c0-0.3,0.1-0.5,0.4-0.6C64.5,15,65.9,14.9,68.4,14.8z M69.5,25.7c0.3,0.2,0.6,0.3,0.9,0.4
		c0.3,0.1,0.7,0.2,1.2,0.2c0.8,0,1.4-0.3,1.8-0.8c0.4-0.5,0.6-1.7,0.6-3.5c0-2.1-0.2-3.5-0.6-4.1c-0.4-0.6-1-1-1.7-1
		c-0.4,0-0.8,0.1-1.2,0.3s-0.6,0.6-0.7,1.1c-0.1,0.5-0.2,1.2-0.2,2V25.7z"/>
	<path class="st0" d="M84.3,14.8c0,0.3,0,0.7,0,1.1c0.8-0.4,1.5-0.7,2.3-0.9c0.8-0.2,1.6-0.4,2.4-0.4c1.7,0,3,0.5,3.8,1.4
		c0.8,1,1.2,2.5,1.2,4.5c0,2.8-0.6,4.8-1.8,6.1c-1.2,1.3-2.9,1.9-4.9,1.9c-0.5,0-0.9,0-1.2-0.1c-0.3,0-0.5-0.1-0.7-0.1
		c0,1.3,0,2.7,0.1,4h1.9c0.2,0.3,0.2,0.6,0.2,1c0,0.3-0.1,0.5-0.2,0.7c-0.1,0.1-0.4,0.2-0.8,0.2H80c-0.2-0.4-0.2-0.7-0.2-1.1
		c0-0.3,0.1-0.5,0.2-0.6s0.3-0.2,0.6-0.2h1c0-1.3,0.1-3.1,0.1-5.3v-5.2c0-2.5-0.1-4-0.4-4.5C81,17,80.6,16.8,80,16.8
		c-0.2-0.4-0.2-0.7-0.2-1.1c0-0.3,0.1-0.5,0.4-0.6C80.4,15,81.8,14.9,84.3,14.8z M85.4,25.7c0.3,0.2,0.6,0.3,0.9,0.4
		c0.3,0.1,0.7,0.2,1.2,0.2c0.8,0,1.4-0.3,1.8-0.8c0.4-0.5,0.6-1.7,0.6-3.5c0-2.1-0.2-3.5-0.6-4.1c-0.4-0.6-1-1-1.7-1
		c-0.4,0-0.8,0.1-1.2,0.3s-0.6,0.6-0.7,1.1c-0.1,0.5-0.2,1.2-0.2,2V25.7z"/>
</g>
<g>
	<g>
		<path class="st0" d="M97,27.4C97,27.4,97,27.3,97,27.4c0.3-0.2,0.9-0.5,1.2,0.2c0,0,0,0.1,0,0.1c-0.2,0.6-0.5,1.2-0.8,1.8
			c-1.5,2.9-3.9,5.6-6.9,7.6c-3,2.1-6.5,3.5-10.2,4.1c-3.7,0.6-7.5,0.4-10.9-0.6c-1.7-0.5-3.3-1.2-4.8-2l-0.3-0.2
			c0,0-0.1-0.1-0.1-0.1l-0.2-0.2l-0.5-0.3c0,0-0.4-0.3-0.8-0.7c-0.5-0.4-1-1-1.4-1.4c-1.3-1.6-0.4-1.2,0.6-0.4
			c0-0.1,0.6,0.4,1.2,0.9c0.3,0.2,0.7,0.4,0.9,0.6c0.3,0.1,0.4,0.2,0.4,0.2l0.5,0.3c0.1,0,0.2,0.1,0.2,0.1l0.8,0.4
			c1.4,0.7,2.9,1.3,4.5,1.8c3.2,0.9,6.7,1,10.1,0.4c3.4-0.6,6.7-1.9,9.4-3.9c2.7-1.9,4.9-4.4,6.3-7.1C96.5,28.5,96.8,27.9,97,27.4z"
			/>
	</g>
	<g>
		<path class="st0" d="M58.5,17.3C58.5,17.3,58.5,17.3,58.5,17.3c-0.3,0.2-0.9,0.5-1.2-0.2c0,0,0-0.1,0-0.1c0.3-0.6,0.6-1.2,0.9-1.7
			c1.6-2.7,3.9-5.1,6.8-7c2.8-1.9,6.2-3.2,9.6-3.7c3.5-0.6,7-0.5,10.3,0.4c1.6,0.4,3.2,1,4.6,1.7L90,6.8c0.1,0,0.2,0.1,0.3,0.1
			l0.5,0.3c0,0,0.4,0.2,0.9,0.6c0.5,0.4,1,0.9,1.5,1.4c1.4,1.6,0.5,1.2-0.6,0.4c0,0.1-0.6-0.4-1.3-0.8c-0.7-0.4-1.4-0.8-1.4-0.8
			l-0.5-0.3l-1-0.5C87,6.6,85.5,6.1,84,5.8c-3-0.7-6.3-0.8-9.5-0.2c-3.2,0.6-6.3,1.8-8.9,3.6c-2.6,1.7-4.8,4-6.3,6.5
			C59,16.2,58.7,16.7,58.5,17.3z"/>
	</g>
</g>
</svg>
