<?xml version="1.0" standalone="no"?>
<!DOCTYPE svg PUBLIC "-//W3C//DTD SVG 1.1//EN" "http://www.w3.org/Graphics/SVG/1.1/DTD/svg11.dtd" >
<svg xmlns="http://www.w3.org/2000/svg">
<metadata></metadata>
<defs>
<font id="luengoultralight" horiz-adv-x="1204" >
<font-face units-per-em="2048" ascent="1638" descent="-410" />
<missing-glyph horiz-adv-x="512" />
<glyph unicode="&#xfb01;" horiz-adv-x="1081" d="M102 909q0 26 10.5 34.5t34.5 8.5h80v324q0 156 93.5 244t226.5 90q133 0 239 -78q25 -19 29.5 -33t-10.5 -33q-30 -35 -64 -10q-92 70 -194 70q-96 2 -158.5 -62.5t-62.5 -189.5v-322h161q24 0 34.5 -8.5t10.5 -34.5t-10.5 -34.5t-34.5 -8.5h-161v-815q0 -27 -10 -39 t-40 -12t-39.5 12t-9.5 39v815h-80q-24 0 -34.5 8.5t-10.5 34.5zM809 51v850q0 27 9.5 39t39.5 12t39.5 -12t9.5 -39v-850q0 -27 -9.5 -39t-39.5 -12t-39.5 12t-9.5 39z" />
<glyph unicode="&#xfb02;" horiz-adv-x="1052" d="M102 909q0 26 10.5 34.5t34.5 8.5h80v322q0 163 91 248.5t231 87.5q139 3 285 -80q45 -23 45 -72v-1407q0 -27 -9.5 -39t-38.5 -12q-30 0 -39.5 12t-9.5 39v1411q-132 63 -229 60q-102 0 -164.5 -62.5t-62.5 -187.5v-320h161q24 0 34.5 -8.5t10.5 -34.5t-10.5 -34.5 t-34.5 -8.5h-161v-815q0 -27 -10 -39t-40 -12t-39.5 12t-9.5 39v815h-80q-24 0 -34.5 8.5t-10.5 34.5z" />
<glyph horiz-adv-x="0" />
<glyph horiz-adv-x="682" />
<glyph unicode=" "  horiz-adv-x="512" />
<glyph unicode="&#x09;" horiz-adv-x="512" />
<glyph unicode="&#xa0;" horiz-adv-x="512" />
<glyph unicode="!" horiz-adv-x="483" d="M164 45q0 32 23 55t55 23t54.5 -23t22.5 -55t-22.5 -55t-54.5 -23t-55 23t-23 55zM186 1423q0 27 10 39.5t42 12.5q31 0 41 -12t10 -40l-8 -944q0 -24 -8.5 -34.5t-34.5 -10.5t-34.5 10.5t-8.5 34.5z" />
<glyph unicode="&#x22;" horiz-adv-x="692" d="M164 1423q0 28 9.5 40t39.5 12t39.5 -12t9.5 -40l-6 -266q0 -27 -8.5 -39t-34.5 -12t-34.5 12t-8.5 39zM430 1423q0 28 9.5 40t39.5 12t39.5 -12t9.5 -40l-6 -266q0 -27 -8.5 -39t-34.5 -12t-34.5 12t-8.5 39z" />
<glyph unicode="#" horiz-adv-x="1515" d="M123 483q0 27 10.5 35t34.5 8h235l89 344h-283q-24 0 -34.5 8t-10.5 35t10.5 35t34.5 8h305l109 426q6 23 17.5 31t37.5 2q27 -5 32.5 -19t-1.5 -34l-103 -406h400l108 426q6 23 17.5 31t37.5 2q27 -5 32.5 -19t-1.5 -34l-102 -406h260q24 0 34.5 -8t10.5 -35t-10.5 -35 t-34.5 -8h-283l-88 -344h330q24 0 34.5 -8t10.5 -35t-10.5 -35t-34.5 -8h-352l-101 -401q-6 -23 -17.5 -31t-37.5 -2q-27 5 -32.5 19t1.5 34l96 381h-401l-100 -401q-6 -23 -18 -31t-38 -2q-27 5 -32 19t2 34l96 381h-215q-24 0 -34.5 8t-10.5 35zM496 526h399l88 344h-399z " />
<glyph unicode="$" horiz-adv-x="1312" d="M131 182.5q-3 14.5 12 34.5q12 15 24.5 18t22 -1.5t25.5 -16.5q58 -42 102.5 -68t124 -54t168.5 -36v660q-59 21 -95 34t-89.5 37t-87 45t-72 52.5t-60 65.5t-36 79t-14.5 96q0 87 38 157.5t103 115t144.5 70t168.5 30.5v144q0 27 9.5 39t39.5 12q29 0 37.5 -11.5 t8.5 -39.5v-140q107 -3 203.5 -32.5t158.5 -79.5q16 -13 24.5 -23.5t8.5 -24.5t-13 -30q-29 -37 -69 -10q-75 48 -142 72.5t-171 31.5v-621q52 -17 81 -27t77 -28.5t76 -32t67 -36t62 -43t49.5 -49.5t40 -59.5t23 -69t9.5 -81.5q0 -95 -41 -170t-111 -121t-153.5 -72 t-179.5 -32v-141q0 -28 -8.5 -39.5t-37.5 -11.5q-30 0 -39.5 12t-9.5 39v141q-136 8 -252 59t-198 121q-26 21 -29 35.5zM254 1137q0 -51 22.5 -95.5t54 -75t84.5 -60t94 -46.5t101 -39v596q-91 -5 -170 -37.5t-132.5 -96t-53.5 -146.5zM705 59q103 5 187.5 39t139.5 102 t55 158q0 53 -20 96.5t-51 75t-84 61t-103 50t-124 45.5v-627z" />
<glyph unicode="%" horiz-adv-x="2019" d="M123 1149q0 150 103.5 256t256.5 106q154 0 258.5 -106.5t104.5 -255.5t-104.5 -255t-258.5 -106q-153 0 -256.5 105.5t-103.5 255.5zM225 1149q0 -114 74 -192t184 -78t185 78t75 192t-75 193t-185 79q-109 0 -183.5 -78.5t-74.5 -193.5zM513 43q-1 15 13 31l942 1376 q13 21 25.5 24t38.5 -12q23 -16 23.5 -30.5t-13.5 -30.5l-942 -1376q-13 -21 -25 -24.5t-38 11.5q-23 16 -24 31zM1174 324q0 150 103.5 256t256.5 106q154 0 258 -106t104 -256q0 -149 -104 -255t-258 -106q-153 0 -256.5 105.5t-103.5 255.5zM1276 324q0 -114 74 -192.5 t184 -78.5t185 78.5t75 192.5t-75 193t-185 79q-109 0 -183.5 -78.5t-74.5 -193.5z" />
<glyph unicode="&#x26;" horiz-adv-x="1202" d="M62 425q0 81 31.5 158t109 150t194.5 127q-8 10 -45 54.5t-51 65t-38.5 61t-35.5 79.5t-14 82q-5 76 22.5 136.5t76.5 96.5t109.5 53.5t125.5 14.5q128 -5 213 -83t69 -210q-11 -99 -82.5 -197t-207.5 -173l399 -512q44 62 90 149q22 42 62 21q22 -11 24 -26t-10 -36 q-38 -81 -111 -182l144 -174q16 -18 14 -33t-25 -33q-18 -14 -33 -13t-32 22l-123 157q-97 -110 -208.5 -162.5t-212 -47t-188.5 48.5t-153 118q-54 61 -84 134t-30 154zM167.5 497q-15.5 -82 4.5 -160.5t74 -141.5q53 -62 125.5 -96t156 -36.5t176.5 45.5t175 144l-428 543 q-123 -56 -195.5 -136t-88 -162zM313 1200q4 -42 23.5 -85.5t39 -70.5t54.5 -71t49 -64q115 60 176.5 141t71.5 158q14 95 -42.5 150.5t-143.5 58.5q-61 3 -114 -19t-87 -74t-27 -124z" />
<glyph unicode="'" horiz-adv-x="425" d="M164 1423q0 28 9.5 40t39.5 12t39.5 -12t9.5 -40l-6 -266q0 -27 -8.5 -39t-34.5 -12t-34.5 12t-8.5 39z" />
<glyph unicode="(" horiz-adv-x="569" d="M143 524q9 477 285 930q23 36 57 12q20 -13 22.5 -26t-9.5 -33q-239 -419 -248 -877q-12 -493 248 -954q12 -20 9.5 -33t-22.5 -26q-34 -24 -57 12q-294 481 -285 995z" />
<glyph unicode=")" horiz-adv-x="569" d="M62 -457q-2 13 10 33q256 454 247 944q-6 463 -247 887q-12 20 -10 33t22 26q34 24 57 -12q276 -451 285 -934q6 -515 -285 -991q-23 -36 -57 -12q-20 13 -22 26z" />
<glyph unicode="*" horiz-adv-x="659" d="M103 1313.5q-5 14.5 8 42.5q13 26 29.5 28t37.5 -14l115 -78l-12 131q-2 27 8 39.5t39 12.5t39 -12.5t8 -39.5l-13 -131l115 78q47 32 68 -14q12 -28 7 -42.5t-28 -23.5l-135 -57l133 -59q47 -19 21 -64q-17 -27 -32 -29.5t-36 13.5l-113 75l13 -129q3 -26 -7 -38.5 t-40 -12.5t-40 12.5t-7 38.5l12 129l-113 -77q-21 -16 -36.5 -12.5t-30.5 30.5q-25 45 20 64l133 57l-135 59q-23 9 -28 23.5z" />
<glyph unicode="+" horiz-adv-x="1161" d="M92 563q0 26 10.5 34.5t34.5 8.5h400v400q0 24 8 34.5t35 10.5t35 -10.5t8 -34.5v-400h401q24 0 34.5 -8.5t10.5 -34.5t-10.5 -34.5t-34.5 -8.5h-401v-397q0 -24 -8 -34.5t-35 -10.5t-35 10.5t-8 34.5v397h-400q-24 0 -34.5 8.5t-10.5 34.5z" />
<glyph unicode="," horiz-adv-x="421" d="M123 55q0 37 25.5 62.5t66.5 25.5q84 0 84 -114q0 -52 -25 -136.5t-69 -171.5q-19 -39 -51 -24q-30 14 -13 57q4 10 14 34t14.5 35t12.5 31.5t12.5 33t9 28.5t7 28t2.5 23q-39 -1 -64.5 25.5t-25.5 62.5z" />
<glyph unicode="-" horiz-adv-x="804" d="M102 614q0 26 10.5 34.5t34.5 8.5h510q24 0 34.5 -8.5t10.5 -34.5t-10.5 -34.5t-34.5 -8.5h-510q-24 0 -34.5 8.5t-10.5 34.5z" />
<glyph unicode="." horiz-adv-x="421" d="M123 55q0 37 25.5 62.5t62.5 25.5t62.5 -25.5t25.5 -62.5t-25.5 -62.5t-62.5 -25.5t-62.5 25.5t-25.5 62.5z" />
<glyph unicode="/" horiz-adv-x="929" d="M81.5 37q-2.5 16 8.5 35l674 1360q9 22 22.5 25.5t38.5 -9.5q20 -11 22.5 -27t-7.5 -35l-674 -1359q-9 -22 -23 -26t-39 9q-20 11 -22.5 27z" />
<glyph unicode="0" horiz-adv-x="1427" d="M123 739q0 157 36 293.5t106.5 244.5t186 170t263.5 62q119 0 217 -41t166.5 -112t115.5 -169t69 -210.5t22 -237.5q0 -120 -22 -231.5t-69 -210.5t-115.5 -172.5t-167 -116.5t-216.5 -43q-119 0 -218 43t-167 116.5t-115.5 172.5t-69.5 210.5t-22 231.5zM225 739 q0 -141 31 -263t90 -217t154 -149.5t215 -54.5q118 0 212 55t153.5 150.5t90.5 217.5t31 261q0 194 -53 345.5t-165 243t-269 91.5q-158 0 -270.5 -91.5t-166 -243t-53.5 -345.5z" />
<glyph unicode="1" horiz-adv-x="555" d="M82 1432q0 27 10.5 35t34.5 8h152q61 0 61 -62v-1364q0 -27 -9.5 -38t-39.5 -11t-39.5 11t-9.5 38v1340h-115q-24 0 -34.5 8.5t-10.5 34.5z" />
<glyph unicode="2" horiz-adv-x="1081" d="M113 63q0 28 28 60l529 629q96 115 142 222t34 202t-88 161q-90 81 -226 78q-82 -2 -161.5 -34.5t-139.5 -92.5l-11.5 -11.5t-10.5 -8t-13 -5t-13 3.5t-17 11q-17 14 -19 27.5t3.5 23.5t19.5 25q60 65 155.5 109t211.5 44q124 0 216.5 -48t143.5 -130q76 -125 44 -280 t-171 -320l-541 -643h705q24 0 34.5 -8t10.5 -35t-10.5 -35t-34.5 -8h-760q-61 0 -61 63z" />
<glyph unicode="3" horiz-adv-x="1167" d="M131 184q3 12 19 25q7 6 13 9.5t12 3.5h9.5t9.5 -3.5t8.5 -5t9.5 -7.5t9 -7q79 -64 158 -98.5t192 -34.5q63 0 119 11t106.5 36t87 62t58 93t21.5 125q0 152 -94.5 248t-245.5 111q-12 1 -18.5 2t-14.5 5t-11.5 13t-3.5 23q0 18 7 28t15 12t24 3q84 10 148 49t96 94.5 t40.5 118.5t-15 125.5t-75.5 109.5q-82 74 -207 78q-88 3 -171.5 -30t-147.5 -97q-14 -14 -20 -18.5t-18.5 -4.5t-27.5 13q-17 15 -19 28.5t3.5 23t19.5 24.5q71 75 171 115.5t210 39.5q108 -2 200.5 -47.5t145.5 -132.5q54 -88 54 -188q0 -113 -59 -204t-156 -138 q125 -52 198.5 -154.5t73.5 -247.5q0 -85 -27.5 -157t-75.5 -121t-111 -83.5t-134.5 -49.5t-147 -14.5t-147.5 18.5q-165 40 -268 149q-14 16 -20 25.5t-3 21.5z" />
<glyph unicode="4" horiz-adv-x="1112" d="M76 451q0 26 24 59l645 926q26 39 68 39q33 0 44 -14.5t11 -47.5v-938h148q23 0 34 -9.5t11 -35.5t-10.5 -33.5t-34.5 -7.5h-148v-338q0 -27 -9.5 -39t-39.5 -12t-39.5 12t-9.5 39v338h-635q-59 0 -59 62zM193 475h577v823z" />
<glyph unicode="5" horiz-adv-x="1167" d="M127 211q7 6 13 9.5t12 3.5t9.5 0.5t10.5 -3.5t8.5 -5t9.5 -7.5t9 -7.5q79 -64 158 -98.5t192 -34.5q98 0 184.5 47t144 140.5t62.5 213.5q4 102 -25 183.5t-82 132t-119 78.5t-141 32q-116 6 -221 -43q-50 -25 -87 -12t-25 59l131 522q12 54 67 54h498q24 0 34.5 -8.5 t10.5 -34.5t-10.5 -34.5t-34.5 -8.5h-479l-113 -447q107 46 225 43q94 -2 179.5 -36t153.5 -96.5t106 -161t34 -220.5q-3 -96 -32 -177.5t-76.5 -138t-109.5 -99t-132 -60.5t-144.5 -22t-146.5 16q-143 35 -270 149q-45 38 -4 72z" />
<glyph unicode="6" horiz-adv-x="1144" d="M133 412q6 135 72 262l393 768q14 27 29 33t43 -5q27 -12 32 -27t-8 -38l-319 -606q82 41 174 50t177 -17t154 -79t110.5 -141.5t41.5 -197.5q0 -200 -132.5 -323.5t-328.5 -123.5q-189 0 -317 123.5t-121 321.5zM229 412q-4 -158 93.5 -256.5t246.5 -98.5q96 0 177 41.5 t132 124t52 191.5q0 83 -30 151t-80 110.5t-116 66t-134.5 22.5t-138.5 -26.5t-126 -73.5q-74 -138 -76 -252z" />
<glyph unicode="7" horiz-adv-x="1124" d="M133 1432q0 27 10.5 35t34.5 8h762q61 0 61 -62q0 -18 -16 -61l-561 -1317q-19 -50 -66 -29q-27 13 -32 28.5t6 37.5l567 1317h-721q-24 0 -34.5 8t-10.5 35z" />
<glyph unicode="8" horiz-adv-x="1224" d="M123 403q0 133 77.5 237t202.5 157q-101 48 -162 134.5t-61 196.5t61 198.5t159 135.5t212 47t212 -47t159 -135.5t61 -198.5t-61 -196.5t-162 -134.5q125 -53 203 -157t78 -237q0 -126 -68.5 -227.5t-180 -156t-241.5 -54.5t-241.5 54.5t-179.5 156t-68 227.5zM225 403 q0 -153 113.5 -250.5t273.5 -97.5t273.5 97.5t113.5 250.5q0 101 -53.5 181t-141.5 123t-192 43t-192 -43t-141.5 -123t-53.5 -181zM283 1128q0 -128 96 -208t233 -80t233.5 80t96.5 208t-97 209.5t-233 81.5t-232.5 -81t-96.5 -210z" />
<glyph unicode="9" horiz-adv-x="1144" d="M113 1061q0 132 64 235t168 157t228 54q189 0 317.5 -123t121.5 -321q-6 -135 -72 -262l-393 -768q-14 -27 -29 -33.5t-43 4.5q-27 12 -32 27.5t8 38.5l319 606q-82 -41 -174 -50t-177 17t-154 79t-110.5 141.5t-41.5 197.5zM215 1061q0 -83 30 -151t80 -110.5t116 -66 t134.5 -22.5t138.5 26.5t126 73.5q73 136 75 252q4 158 -93.5 256t-246.5 98q-96 0 -177 -41t-131.5 -123.5t-51.5 -191.5z" />
<glyph unicode=":" horiz-adv-x="462" d="M143 55q0 37 25.5 62.5t62.5 25.5t62.5 -25.5t25.5 -62.5t-25.5 -62.5t-62.5 -25.5t-62.5 25.5t-25.5 62.5zM143 897q0 37 25.5 62.5t62.5 25.5t62.5 -25.5t25.5 -62.5t-25.5 -62.5t-62.5 -25.5t-62.5 25.5t-25.5 62.5z" />
<glyph unicode=";" horiz-adv-x="466" d="M143 897q0 37 25.5 62.5t62.5 25.5t62.5 -25.5t25.5 -62.5t-25.5 -62.5t-62.5 -25.5t-62.5 25.5t-25.5 62.5zM147 55q0 37 26 62.5t67 25.5q84 0 84 -114q0 -51 -25.5 -135.5t-69.5 -172.5q-19 -39 -51 -24q-29 14 -12 57q4 10 14 34t14.5 35t12.5 31.5t12.5 33t9 28.5 t7 28t2.5 23q-39 -1 -65 25.5t-26 62.5z" />
<glyph unicode="&#x3c;" horiz-adv-x="1021" d="M101 633q0 26 26 43l680 397q19 13 36.5 11.5t33.5 -23.5q30 -40 -17 -66l-629 -362l629 -363q46 -26 17 -65q-16 -22 -33.5 -23.5t-36.5 11.5l-680 397q-26 17 -26 43z" />
<glyph unicode="=" horiz-adv-x="1218" d="M123 379q0 26 10.5 34.5t34.5 8.5h883q24 0 34.5 -8.5t10.5 -34.5t-10.5 -34.5t-34.5 -8.5h-883q-24 0 -34.5 8.5t-10.5 34.5zM123 748q0 26 10.5 34.5t34.5 8.5h883q24 0 34.5 -8.5t10.5 -34.5t-10.5 -34.5t-34.5 -8.5h-883q-24 0 -34.5 8.5t-10.5 34.5z" />
<glyph unicode="&#x3e;" horiz-adv-x="1021" d="M145 205q-29 39 17 65l629 363l-629 362q-47 26 -17 66q16 22 33.5 23.5t36.5 -11.5l680 -397q26 -17 26 -43t-26 -43l-680 -397q-19 -13 -36.5 -11.5t-33.5 23.5z" />
<glyph unicode="?" horiz-adv-x="1038" d="M127.5 1305.5q-2.5 13.5 4 24t20.5 24.5q165 156 387 153q159 -5 267.5 -104.5t108.5 -265.5q0 -77 -25.5 -145.5t-65 -116.5t-89 -98.5t-94.5 -91t-83.5 -93t-55.5 -105.5q-8 -29 -17.5 -37.5t-33.5 -7.5q-28 1 -35 11t-4 34q8 63 53 127.5t102 120.5t113 115.5 t94.5 135t38.5 157.5q0 124 -78.5 195.5t-197.5 74.5q-81 3 -167 -29t-157 -96q-2 -1 -6 -5l-5.5 -5.5t-5.5 -4.5t-6 -4l-6 -3t-6.5 -1.5t-6.5 0.5t-7.5 2t-7.5 4.5t-9 6.5q-17 14 -19.5 27.5zM365 45q0 32 22.5 55t54.5 23t55 -23t23 -55t-23 -55t-55 -23t-54.5 23 t-22.5 55z" />
<glyph unicode="@" horiz-adv-x="1794" d="M133 737q0 215 99 389t279 273.5t407 99.5q169 0 311.5 -56.5t239.5 -155.5t148 -238t44 -299q-7 -140 -59 -238t-160 -131q-83 -26 -149 2t-99 98q-127 -139 -305 -139q-175 0 -281 118t-106 292q0 172 105 287.5t286 115.5q88 0 185.5 -26.5t152.5 -63.5 q26 -18 34.5 -37t8.5 -49v-455q18 -37 55.5 -58t93.5 1q70 28 99 100.5t32 180.5q3 132 -29.5 242t-92 185.5t-142 128t-177 77t-198.5 24.5q-196 0 -350 -85.5t-239.5 -237t-85.5 -341.5q0 -99 23.5 -190.5t78.5 -178t136 -150t206 -102t279 -38.5q132 0 225.5 26.5 t200.5 79.5q46 23 67 -20q11 -22 3.5 -37.5t-36.5 -32.5q-82 -49 -212 -79.5t-271 -30.5q-181 0 -333 56.5t-255.5 156.5t-161 238t-57.5 298zM600 756q0 -148 76.5 -238t212.5 -90q90 0 162 38t120 97v432q-205 115 -374 60q-197 -63 -197 -299z" />
<glyph unicode="A" horiz-adv-x="1478" d="M85 32q-2 5 -2 11q0 10 5 23l590 1374q8 20 20.5 27.5t40.5 7.5t41 -8t21 -27l590 -1374q5 -13 5 -22q0 -7 -2 -12q-6 -12 -34 -24q-18 -8 -30 -8q-5 0 -9 2q-14 4 -23 25l-153 376h-811l-154 -376q-11 -27 -34 -27q-13 0 -29 8q-26 12 -32 24zM373 494h735l-369 868z " />
<glyph unicode="B" horiz-adv-x="1349" d="M215 61v1352q0 29 16 45.5t45 16.5h455q174 0 286.5 -103.5t112.5 -273.5q0 -221 -159 -326q127 -37 198.5 -135t71.5 -238q0 -180 -120 -289.5t-306 -109.5h-539q-61 0 -61 61zM317 90h498q143 0 233.5 82t90.5 227t-90.5 225.5t-233.5 80.5h-498v-615zM317 795h414 q133 0 215 84.5t82 218.5q0 132 -81 209t-216 77h-414v-589z" />
<glyph unicode="C" horiz-adv-x="1505" d="M133 739q0 154 41.5 282.5t111.5 217t164 150.5q94 63 200 91q102 28 210 27h8q248 0 443 -141q27 -19 27 -39q0 -15 -15 -31q-18 -18 -37 -18q-17 0 -37 14q-183 123 -381 123q-97 0 -187.5 -26t-171 -81t-141 -133t-95.5 -190.5t-35 -245.5q0 -158 53 -288t141.5 -213 t201 -128t234.5 -47h9q250 0 446 164q18 14 34 14q19 0 36 -20q11 -15 11 -29q0 -21 -24 -40q-225 -185 -520 -185q-114 0 -220 31t-198 95t-161 154.5t-108.5 217t-39.5 274.5z" />
<glyph unicode="D" horiz-adv-x="1536" d="M215 61v1352q0 29 16 45.5t45 16.5h394q171 0 310 -55.5t231.5 -153.5t142 -233t49.5 -294q0 -214 -85 -380t-253 -262.5t-395 -96.5h-394q-61 0 -61 61zM317 94h353q197 0 340.5 82.5t215.5 227t72 335.5q0 289 -166 465t-462 176h-353v-1286z" />
<glyph unicode="E" horiz-adv-x="1257" d="M215 61v1352q0 29 16 45.5t45 16.5h771q25 0 36 -9.5t11 -35.5q0 -27 -11 -36.5t-36 -9.5h-730v-606h627q25 0 36 -9.5t11 -35.5t-11 -35.5t-36 -9.5h-627v-598h770q25 0 36.5 -9.5t11.5 -35.5t-11.5 -35.5t-36.5 -9.5h-811q-61 0 -61 61z" />
<glyph unicode="F" horiz-adv-x="1210" d="M215 51v1362q0 29 16 45.5t45 16.5h773q25 0 36 -9.5t11 -35.5q0 -27 -11 -36.5t-36 -9.5h-732v-653h629q25 0 36 -9.5t11 -35.5t-11 -35.5t-36 -9.5h-629v-590q0 -26 -11 -38.5t-40 -12.5t-40 12.5t-11 38.5z" />
<glyph unicode="G" horiz-adv-x="1615" d="M133 739q0 151 41 278t111 215t164.5 149.5t199.5 91t217 30.5h11q254 0 454 -141q27 -19 27 -39q0 -15 -15 -31q-17 -17 -37 -17q-17 0 -36 13q-173 127 -394 127h-10q-96 -1 -187 -28t-171 -82.5t-140 -134t-95 -189.5t-35 -242q0 -155 52.5 -284.5t141 -213.5 t200 -131t232.5 -49h14q130 0 252 51q130 54 228 164v383h-410q-25 0 -36 9t-11 37q0 26 11 35.5t36 9.5h467q45 0 45 -45v-394q0 -47 -24 -80q-196 -261 -572 -264q-208 0 -376.5 104t-261.5 280t-93 388z" />
<glyph unicode="H" horiz-adv-x="1529" d="M215 53v1368q0 29 10.5 41.5t40.5 12.5t40.5 -12.5t10.5 -41.5v-635h895v635q0 28 10.5 41t41.5 13q30 0 40.5 -12.5t10.5 -41.5v-1368q0 -28 -10 -40.5t-41 -12.5t-41.5 12.5t-10.5 40.5v643h-895v-643q0 -28 -10 -40.5t-41 -12.5t-41 12.5t-10 40.5z" />
<glyph unicode="I" horiz-adv-x="491" d="M195 53v1368q0 29 10.5 41.5t40.5 12.5t40.5 -12.5t10.5 -41.5v-1368q0 -29 -9.5 -41t-41.5 -12t-41.5 12t-9.5 41z" />
<glyph unicode="J" horiz-adv-x="1028" d="M68 118q-2 3 -2 7q0 11 10 27q18 22 34 22t42 -20q53 -38 134 -66.5t148 -28.5q130 3 212.5 88t82.5 252v1022q0 29 9.5 41.5t41.5 12.5t41.5 -12.5t9.5 -41.5v-1022q0 -111 -32.5 -196t-89.5 -135t-126 -74.5t-149 -24.5q-92 0 -182.5 32t-159.5 89q-20 15 -24 28z" />
<glyph unicode="K" horiz-adv-x="1218" d="M215 53v1368q0 29 9.5 41.5t41.5 12.5t41.5 -12.5t9.5 -41.5v-878l711 911q15 21 34 21q16 0 34 -15q19 -16 19.5 -30.5t-13.5 -32.5l-445 -572l467 -745q11 -18 11 -33q0 -21 -21 -35q-19 -13 -35 -13q-21 0 -35 24l-450 725l-277 -347v-348q0 -29 -9.5 -41t-41.5 -12 t-41.5 12t-9.5 41z" />
<glyph unicode="L" horiz-adv-x="1173" d="M215 61v1360q0 29 10.5 41.5t40.5 12.5t40.5 -12.5t10.5 -41.5v-1331h721q29 0 41.5 -9t12.5 -36t-12.5 -36t-41.5 -9h-762q-61 0 -61 61z" />
<glyph unicode="M" horiz-adv-x="1802" d="M201 53v1344q0 30 9.5 46t37.5 25q15 5 29 5q32 0 55 -27l569 -686l569 686q22 26 57 26q14 0 29 -4q27 -7 36.5 -23.5t9.5 -47.5v-1344q0 -28 -11 -40.5t-41 -12.5q-29 0 -40 12.5t-11 40.5v1278l-559 -661q-20 -24 -40 -24t-40 24l-557 661v-1278q0 -28 -11 -40.5 t-40 -12.5t-40 12.5t-11 40.5z" />
<glyph unicode="N" horiz-adv-x="1546" d="M201 53v1329q0 35 9 55t40 31q39 11 57 4.5t37 -32.5l899 -1305v1288q0 29 10.5 41.5t40.5 12.5q31 0 41.5 -13t10.5 -41v-1329q0 -20 -1 -28.5t-5 -21.5t-15 -21.5t-29 -14.5q-17 -6 -31 -6q-36 0 -63 35l-899 1304v-1288q0 -28 -10 -40.5t-41 -12.5t-41 12.5t-10 40.5z " />
<glyph unicode="O" horiz-adv-x="1767" d="M133 739q0 209 98.5 385.5t271.5 279.5t382 103q208 0 380.5 -103t270.5 -279.5t98 -385.5q0 -157 -58 -299.5t-157 -246.5t-238.5 -165t-295.5 -61q-157 0 -297 61t-239.5 165t-157.5 246.5t-58 299.5zM238 739q0 -187 85 -342.5t233.5 -245.5t328.5 -90q178 0 326.5 90 t233.5 245.5t85 342.5q0 186 -85 340.5t-233.5 244t-326.5 89.5q-180 0 -328.5 -89.5t-233.5 -244t-85 -340.5z" />
<glyph unicode="P" horiz-adv-x="1288" d="M215 53v1360q0 29 16 45.5t45 16.5h457q182 0 302 -125.5t120 -309.5t-120 -310t-302 -126h-416v-551q0 -29 -9.5 -41t-41.5 -12t-41.5 12t-9.5 41zM317 694h416h8q134 0 223 93q91 96 91 253q0 149 -92 246.5t-230 97.5h-416v-690z" />
<glyph unicode="Q" horiz-adv-x="1759" d="M133 739q0 157 57.5 298.5t156.5 245t238 164t296 60.5q156 0 295 -60.5t237 -164t155.5 -245t57.5 -298.5q0 -143 -48 -275t-131.5 -232t-199.5 -167.5t-248 -87.5q113 -167 198.5 -227.5t229.5 -77.5q17 -1 26.5 -3.5t17.5 -12.5t8 -27q0 -47 -56 -47 q-156 0 -298.5 109.5t-239.5 275.5q-157 0 -297 61t-239.5 165t-157.5 246.5t-58 299.5zM238 739q0 -187 84 -342.5t232 -245.5t327 -90q178 0 325.5 90t231.5 245.5t84 342.5q0 186 -84 340.5t-231.5 244t-325.5 89.5q-179 0 -327 -89.5t-232 -244t-84 -340.5z" />
<glyph unicode="R" horiz-adv-x="1288" d="M215 53v1360q0 62 61 62h437q198 0 330.5 -120.5t132.5 -303.5q0 -148 -90 -259.5t-236 -148.5l301 -565q9 -17 9 -30q0 -23 -25 -38q-16 -9 -30 -9q-24 0 -38 28l-319 596h-431v-572q0 -29 -9.5 -41t-41.5 -12t-41.5 12t-9.5 41zM317 715h396h10q149 0 249 89 q102 92 103 247q0 147 -103 240t-259 93h-396v-669z" />
<glyph unicode="S" horiz-adv-x="1222" d="M112 123.5q0 12.5 11 30.5q17 26 37 29t37 -9q126 -61 214 -85q78 -21 188 -21h28q172 5 278.5 70.5t110.5 191.5v9q0 29 -6 56q-6 31 -16.5 55.5t-31.5 48t-40 40.5t-51 35.5t-56.5 31t-65 28.5t-67.5 25.5t-72 24.5q-63 21 -107 38t-99 42t-92.5 49.5t-75.5 58 t-61 70.5t-37.5 85t-14.5 103q0 91 38.5 163t104 117t148 69t176.5 26h14q101 0 205 -27q111 -29 201 -85q11 -7 17.5 -12.5t13 -14.5t4.5 -21t-13 -26q-14 -17 -30 -20t-26.5 1.5t-31.5 16.5q-169 94 -345 94h-11q-153 -2 -258 -78.5t-105 -202.5q-1 -55 21.5 -102 t56.5 -80t89 -64t102.5 -50.5t115.5 -42.5q195 -66 268 -103q171 -85 221 -216q23 -62 23 -138q-3 -92 -43.5 -163t-110 -114.5t-157.5 -65.5t-193 -24h-23q-127 -1 -241 29q-124 32 -211 90q-17 10 -24 17.5t-7 20z" />
<glyph unicode="T" horiz-adv-x="1265" d="M82 1430q0 26 11 35.5t36 9.5h1008q25 0 36 -9.5t11 -35.5q0 -27 -11 -36.5t-36 -9.5h-453v-1331q0 -29 -9.5 -41t-41.5 -12t-41.5 12t-9.5 41v1331h-453q-25 0 -36 9.5t-11 36.5z" />
<glyph unicode="U" horiz-adv-x="1615" d="M215 612v809q0 29 10 41.5t43 12.5q32 0 41.5 -12.5t9.5 -41.5v-809q0 -135 32.5 -237.5t82 -161t119 -95t132 -48t132.5 -11.5q48 0 93.5 6t96 22t93.5 42t83.5 69.5t68 99.5t44.5 136.5t17 177.5v809q0 29 9.5 41.5t41.5 12.5t41.5 -12.5t9.5 -41.5v-809 q0 -113 -20 -207t-53 -159.5t-81.5 -116t-99.5 -80.5t-112.5 -49t-116.5 -26t-115 -7t-115 7t-117 26t-113.5 49t-100 80.5t-82.5 116t-54 159.5t-20 207z" />
<glyph unicode="V" horiz-adv-x="1368" d="M88 1401q-6 14 -6 26q0 28 33 41q16 6 27 6q8 0 14 -2q15 -6 24 -32l506 -1317l502 1317q9 26 24 32q6 3 14 2q12 0 27 -6q33 -13 33 -41q0 -12 -6 -26l-532 -1368q-6 -18 -19.5 -25.5t-44.5 -7.5t-44 7.5t-19 25.5z" />
<glyph unicode="W" horiz-adv-x="2248" d="M88 1399q-5 14 -5 26q0 30 34 43q30 10 44 3t23 -33l449 -1311l416 1305q15 43 77 43q64 0 76 -43l414 -1305l448 1311q11 35 41 35q12 0 27 -5q26 -10 32 -28q2 -7 2 -15q0 -12 -5 -26l-469 -1356q-8 -23 -24 -33t-50 -10q-63 0 -78 43l-414 1303l-415 -1303 q-12 -43 -78 -43q-64 0 -76 43z" />
<glyph unicode="X" horiz-adv-x="1355" d="M98 88l514 655l-491 641q-12 17 -15.5 26.5t0.5 22t21 25.5q18 14 35 14q22 0 41 -24l475 -625l487 627q18 24 39 24q16 0 35 -14q24 -18 25 -35.5t-17 -38.5l-506 -641l516 -655q17 -19 17 -35q0 -18 -25 -39q-19 -16 -36 -16q-21 0 -39 25l-498 641l-496 -641 q-19 -25 -40 -25q-16 0 -34 14q-23 17 -23 38q0 17 15 36z" />
<glyph unicode="Y" horiz-adv-x="1234" d="M72 1434q3 18 28 32q16 9 30 9q24 0 40 -29l446 -770l447 770q16 28 42 28q13 0 30 -8q26 -14 26 -37q0 -15 -10 -34l-483 -830v-514q0 -28 -9.5 -39.5t-40.5 -11.5t-40 11.5t-9 39.5v518l-485 826q-12 18 -12 33v6z" />
<glyph unicode="Z" horiz-adv-x="1239" d="M113 61q0 27 24 64l852 1259h-780q-25 0 -36 9.5t-11 36.5q0 26 11 35.5t36 9.5h844q61 0 61 -62q0 -25 -24 -63l-863 -1260h852q25 0 36 -9.5t11 -35.5t-11 -35.5t-36 -9.5h-905q-61 0 -61 61z" />
<glyph unicode="[" horiz-adv-x="649" d="M215 -430v1843q0 62 61 62h263q26 0 37.5 -9.5t11.5 -35.5q0 -28 -11.5 -38t-37.5 -10h-222v-1781h222q26 0 37.5 -9.5t11.5 -37.5q0 -27 -11.5 -36.5t-37.5 -9.5h-263q-61 0 -61 62z" />
<glyph unicode="\" horiz-adv-x="929" d="M81.5 1421q2.5 16 22.5 27q45 25 62 -16l674 -1360q10 -19 7.5 -35t-22.5 -27q-25 -13 -38.5 -9t-22.5 26l-674 1359q-11 19 -8.5 35z" />
<glyph unicode="]" horiz-adv-x="649" d="M61 -446q0 28 11.5 37.5t38.5 9.5h221v1781h-221q-26 0 -38 10t-12 38q0 26 12 35.5t38 9.5h262q61 0 61 -62v-1843q0 -62 -61 -62h-262q-26 0 -38 9.5t-12 36.5z" />
<glyph unicode="^" horiz-adv-x="1146" d="M133 770l397 680q8 14 17 19.5t26 5.5t26 -5.5t17 -19.5l398 -680q24 -46 -13 -70q-24 -14 -38.5 -10t-26.5 27l-363 626l-362 -626q-24 -44 -66 -17q-36 23 -12 70z" />
<glyph unicode="_" horiz-adv-x="1136" d="M102 -76q0 26 10.5 34.5t34.5 8.5h842q24 0 34.5 -8.5t10.5 -34.5t-10.5 -34.5t-34.5 -8.5h-842q-24 0 -34.5 8.5t-10.5 34.5z" />
<glyph unicode="`" horiz-adv-x="509" d="M117 1368q-34 34 8 70q42 39 72 2l198 -236q34 -38 2 -63t-63 6z" />
<glyph unicode="a" d="M113 477q0 221 142.5 364.5t344.5 143.5q199 0 408 -117q43 -22 43 -73v-744q0 -27 -10.5 -39t-39.5 -12t-39 12t-10 39v90q-86 -86 -187 -130t-202 -44q-91 0 -172 34t-143 97.5t-98.5 161.5t-36.5 217zM215 475q0 -191 101.5 -302t248.5 -116h12q97 -1 193 47 q102 50 182 152v549q-181 90 -352 90q-161 0 -273 -116t-112 -304z" />
<glyph unicode="b" horiz-adv-x="1220" d="M170 152v1374q0 27 10 39t39 12t39 -12t10 -39v-695q70 70 165 112t204 42q138 0 246.5 -70.5t166.5 -187t58 -256.5q0 -144 -51 -251t-137 -164q-84 -57 -194 -78q-59 -11 -122 -11q-52 0 -108 8q-120 18 -238 70q-49 23 -68.5 45t-19.5 62zM268 141q86 -43 174 -65 t170 -22q2 0 3 1q80 0 151 25q72 26 125 74.5t84 130t31 186.5q0 181 -101 302.5t-264 121.5q-237 0 -373 -186v-568z" />
<glyph unicode="c" horiz-adv-x="1062" d="M113 473q0 124 39.5 221t105 155t149.5 92q85 34 173 38q16 1 32 0q70 1 140 -13q84 -18 153 -57q27 -15 32.5 -29.5t-11.5 -41.5q-17 -22 -36 -22t-44 15q-53 29 -119 43q-58 12 -119 12h-18q-71 -2 -138 -28t-120 -72t-85 -127t-32 -186q1 -113 44.5 -200t114.5 -133.5 t157 -65.5q47 -10 95 -10q41 0 82 7q91 16 169 62q38 22 50 21q14 -1 29 -17q16 -18 16 -33q0 -10 -6 -16q-7 -8 -24 -22q-63 -43 -139.5 -68t-155.5 -27h-18q-71 0 -139 14q-78 16 -145 57t-119 99t-82.5 144t-30.5 188z" />
<glyph unicode="d" d="M113 471q0 140 58 256.5t166.5 187t246.5 70.5q109 0 203.5 -42t164.5 -112v695q0 27 10 39t39 12t39.5 -12t10.5 -39v-1374q0 -40 -19.5 -62t-68.5 -45q-117 -52 -237 -70q-56 -8 -109 -8q-61 0 -121 11q-110 21 -195.5 78t-136.5 164t-51 251zM215 471 q0 -105 30.5 -186.5t84.5 -130.5q52 -48 124 -74q70 -26 151 -25q2 -1 3 -1q82 0 170 22t174 65v568q-136 186 -372 186q-163 0 -264 -121.5t-101 -302.5z" />
<glyph unicode="e" horiz-adv-x="1099" d="M113 467q0 145 59 262.5t169.5 186.5t252.5 69h9q188 0 307 -116q90 -88 100 -199q1 -13 1 -25q0 -87 -61 -136q-52 -42 -137 -42h-598q1 -103 34.5 -182t91.5 -126t128.5 -70t151.5 -23q131 0 245 57q23 11 34 15t25 1t25 -18q12 -17 12 -29.5t-8.5 -21t-27.5 -19.5 q-76 -44 -166 -65q-78 -18 -157 -18h-22q-90 3 -174.5 36.5t-149.5 91.5t-104.5 154t-39.5 217zM221 553h590q75 0 94 63q5 18 5 37q0 49 -35 103q-60 95 -178 127q-46 12 -95 12h-8q-152 -1 -251.5 -95t-121.5 -247z" />
<glyph unicode="f" horiz-adv-x="618" d="M102 909q0 26 10.5 34.5t34.5 8.5h80v426q0 111 73 171.5t171 60.5q91 0 154 -51q19 -15 19 -29t-17 -31q-4 -4 -8 -7.5t-8 -5t-7 -3t-6.5 -1t-6 0.5t-6.5 2t-6 2.5t-7 3.5t-7 4q-53 29 -106 29q-58 -2 -95.5 -39t-37.5 -109v-424h161q24 0 34.5 -8.5t10.5 -34.5 t-10.5 -34.5t-34.5 -8.5h-161v-815q0 -27 -10 -39t-40 -12t-39.5 12t-9.5 39v815h-80q-24 0 -34.5 8.5t-10.5 34.5z" />
<glyph unicode="g" horiz-adv-x="1216" d="M113 494q0 133 67 246t181 179t247 66q195 0 322 -111l90 76q18 16 33 15t32 -21t15.5 -33t-23.5 -30l-86 -70q55 -65 84 -148.5t29 -168.5q0 -106 -44 -203t-126 -168q75 -52 112 -125q32 -64 32 -138q0 -10 -1 -20q-4 -70 -33 -134t-81.5 -116t-134.5 -83t-183 -31 q-166 0 -294.5 70.5t-194.5 189.5q-14 28 -9.5 40t27.5 23q27 11 39.5 6t28.5 -30q142 -205 387 -205q162 0 255.5 80.5t98.5 193.5v12q0 60 -26 115q-29 61 -87 105q-124 -76 -262 -76q-133 0 -247 66.5t-181 180.5t-67 247zM215 494q0 -167 116.5 -285.5t276.5 -118.5 q161 0 277 118t116 286q0 167 -116 284t-277 117q-160 0 -276.5 -117t-116.5 -284z" />
<glyph unicode="h" horiz-adv-x="1185" d="M184 51v1475q0 27 9.5 39t39.5 12t40 -12t10 -39v-627q121 63 244 80q44 6 84 6q75 0 141 -20q127 -39 202.5 -146.5t75.5 -277.5v-490q0 -27 -9.5 -39t-39.5 -12t-39.5 12t-9.5 39v490q0 132 -55.5 215.5t-151.5 117.5q-62 21 -134 21q-36 0 -75 -5q-116 -16 -233 -79 v-760q0 -27 -10 -39t-40 -12t-39.5 12t-9.5 39z" />
<glyph unicode="i" horiz-adv-x="503" d="M174 1430q0 32 23 54.5t55 22.5t55 -22.5t23 -54.5t-23 -55t-55 -23t-55 23t-23 55zM205 51v850q0 27 9.5 39t39.5 12t39.5 -12t9.5 -39v-850q0 -27 -9.5 -39t-39.5 -12t-39.5 12t-9.5 39z" />
<glyph unicode="j" horiz-adv-x="512" d="M-44 -492q-1 4 -1 9q0 9 4 20q7 23 17.5 29.5t29.5 1.5q35 -9 67 -9q23 0 44 5q90 27 90 162v1175q0 27 9.5 39t39.5 12t39.5 -12t9.5 -39v-1177q0 -127 -65.5 -187.5t-161.5 -60.5q-55 0 -98 14q-19 6 -24 18zM176 1425q0 34 24 58t58 24t58 -24t24 -58t-24 -58t-58 -24 t-58 24t-24 58z" />
<glyph unicode="k" horiz-adv-x="1021" d="M184 51v1481q0 27 9.5 39t39.5 12t40 -12t10 -39v-1086l530 488q19 19 36 19q16 0 32 -17q18 -22 16.5 -36t-20.5 -32l-304 -286l361 -504q12 -19 12 -34q0 -19 -20 -32q-17 -12 -32 -12q-21 0 -38 25l-346 495l-227 -196v-273q0 -27 -10 -39t-40 -12t-39.5 12t-9.5 39z " />
<glyph unicode="l" horiz-adv-x="444" d="M174 51v1475q0 27 9.5 39t39.5 12q29 0 38 -12t9 -39v-1475q0 -27 -9 -39t-38 -12q-30 0 -39.5 12t-9.5 39z" />
<glyph unicode="m" horiz-adv-x="1863" d="M174 51v764q0 52 45 74q175 93 371 96h11q205 0 317 -106q211 106 393 106h10q177 -2 283 -109.5t106 -314.5v-510q0 -27 -9.5 -39t-39.5 -12t-39.5 12t-9.5 39v510q0 162 -78.5 245.5t-210.5 88.5h-19q-159 0 -335 -94q37 -78 37 -189v-561q0 -27 -10 -39t-40 -12 t-39.5 12t-9.5 39v561q0 76 -23.5 132t-66.5 88t-97 47q-51 14 -114 14h-8q-156 0 -326 -70v-772q0 -27 -9.5 -39t-39.5 -12t-39.5 12t-9.5 39z" />
<glyph unicode="n" horiz-adv-x="1181" d="M174 51v774q0 53 57 78q188 84 365 84q92 -2 168.5 -29t136 -80t92.5 -139t33 -198v-490q0 -27 -9.5 -39t-39.5 -12t-39.5 12t-9.5 39v490q0 179 -93.5 266t-250.5 90h-12q-137 0 -300 -63v-783q0 -27 -9.5 -39t-39.5 -12t-39.5 12t-9.5 39z" />
<glyph unicode="o" horiz-adv-x="1228" d="M113 477q0 211 145.5 359.5t355.5 148.5t356 -148.5t146 -359.5q0 -139 -66.5 -256t-182 -185.5t-253.5 -68.5t-253.5 68.5t-181.5 185.5t-66 256zM215 477q0 -176 116.5 -298t282.5 -122t283 122t117 298t-116 297t-284 121t-283.5 -120.5t-115.5 -297.5z" />
<glyph unicode="p" horiz-adv-x="1224" d="M174 -440v1241q0 40 19 61.5t69 44.5q117 52 238 70q55 8 108 8q63 0 122 -11q109 -21 194.5 -78t136.5 -164t51 -251q0 -140 -58 -256.5t-166.5 -187t-246.5 -70.5q-109 0 -204 42t-165 112v-561q0 -27 -10 -39.5t-39 -12.5t-39 12.5t-10 39.5zM272 244 q137 -187 373 -187q163 0 264 121.5t101 302.5q0 105 -31 186.5t-84 130t-125 74.5q-71 26 -151 26h-3q-82 -1 -170 -22.5t-174 -64.5v-567z" />
<glyph unicode="q" d="M113 481q0 144 51 251t136.5 164t195.5 78q58 11 121 11q53 0 109 -8q120 -18 237 -70q50 -23 69 -44.5t19 -61.5v-1241q0 -27 -10.5 -39.5t-39.5 -12.5t-39 12.5t-10 39.5v561q-70 -70 -164.5 -112t-203.5 -42q-138 0 -246.5 70.5t-166.5 187t-58 256.5zM215 481 q0 -181 101 -302.5t264 -121.5q235 0 372 187v567q-86 43 -174 64.5t-170 22.5h-3q-80 0 -151 -26t-124.5 -74.5t-84 -130t-30.5 -186.5z" />
<glyph unicode="r" horiz-adv-x="698" d="M174 51v785q0 41 17 62t53 38q100 50 200 49q71 0 142 -24q28 -9 36 -20q4 -6 4 -15q0 -8 -3 -19q-6 -20 -16 -27t-29 -1q-76 21 -141 21q-95 0 -165 -46v-803q0 -27 -9.5 -39t-39.5 -12t-39.5 12t-9.5 39z" />
<glyph unicode="s" horiz-adv-x="962" d="M113 124q0 14 20 30q8 6 16 8t13.5 2t13 -3t11 -5.5t11.5 -8.5t11 -8q112 -81 268 -88h24q62 0 115 13q63 16 105.5 57.5t42.5 103.5q0 79 -67 121.5t-236 95.5q-58 18 -98 33t-87.5 40.5t-76 53.5t-48.5 69.5t-20 90.5q0 69 35.5 122t91.5 82t128 43q54 11 108 11 q16 1 34 -1q70 -4 135.5 -24t108.5 -53q22 -18 25 -29t-11 -26q-10 -11 -19 -16t-20 -3t-16 3.5t-18 9t-15 8.5q-54 30 -134 40q-42 6 -83 6q-37 0 -73 -4q-76 -10 -129.5 -52.5t-53.5 -110.5q0 -33 15 -61t36 -47t60.5 -37.5t70 -29.5t82.5 -28q63 -20 104 -34.5t88 -35 t76 -41.5t54.5 -48.5t37 -61.5t11.5 -75q0 -88 -54 -152t-140 -90.5t-183 -27.5h-6q-95 0 -187 32q-96 34 -159 94q-18 16 -18 32z" />
<glyph unicode="t" horiz-adv-x="645" d="M72 909q0 26 10.5 34.5t34.5 8.5h80v219q0 28 9.5 40t39.5 12t39.5 -12t9.5 -40v-219h162q24 0 34.5 -8.5t10.5 -34.5t-10.5 -34.5t-34.5 -8.5h-162v-669q0 -53 25 -88t62 -47q30 -9 63 -9q7 1 14 1q40 2 73 18q26 13 42.5 11t27.5 -24q7 -17 7 -27q1 -6 -1 -8 q-4 -10 -26 -20q-57 -30 -124 -35q-13 -1 -26 -1q-54 0 -100 16q-58 20 -96.5 75.5t-38.5 135.5v671h-80q-24 0 -34.5 8.5t-10.5 34.5z" />
<glyph unicode="u" horiz-adv-x="1150" d="M154 412v489q0 27 9.5 39t39.5 12t39.5 -12t9.5 -39v-489q0 -175 87 -263t232 -94h23q135 0 301 64v782q0 27 9.5 39t39.5 12t39.5 -12t9.5 -39v-774q0 -53 -57 -78q-181 -82 -339 -82h-11q-91 0 -168 26.5t-137 79t-93.5 139.5t-33.5 200z" />
<glyph unicode="v" horiz-adv-x="1007" d="M74 920q4 16 30 26q18 7 30 7q6 0 11 -2q13 -6 23 -29l336 -813l336 813q10 23 22 29q4 2 11 2q12 0 30 -7q26 -10 31 -26q2 -5 2 -11q0 -12 -8 -26l-361 -840q-10 -25 -21 -34t-42 -9t-42.5 9t-21.5 34l-360 840q-8 15 -8 27q1 6 2 10z" />
<glyph unicode="w" horiz-adv-x="1605" d="M72 921q4 15 32 25q14 5 25 5q28 0 39 -33l291 -795l276 784q8 25 22 35t46 10q34 0 46.5 -9.5t20.5 -35.5l275 -784l293 795q9 24 22 30.5t41 -2.5q27 -10 32 -25q2 -5 2 -11q0 -11 -7 -25l-320 -842q-8 -24 -20.5 -33.5t-42.5 -9.5q-32 0 -44 9.5t-20 35.5l-278 791 l-281 -791q-8 -26 -19.5 -35.5t-41.5 -9.5t-43 9.5t-21 33.5l-319 842q-7 14 -7 26q0 5 1 10z" />
<glyph unicode="x" horiz-adv-x="966" d="M88 78l336 411l-309 383q-15 16 -15 31t23 35q15 13 30 13q18 0 35 -21l295 -367l308 367q15 19 26 22h4q12 0 35 -14q24 -17 24.5 -33t-16.5 -33l-319 -380l334 -410q16 -17 16 -33l-1 -1q0 -16 -20 -32q-15 -13 -26 -15t-18.5 3.5t-20.5 20.5l-326 393l-327 -395 q-16 -20 -29 -23h-4q-12 0 -31 14q-21 21 -21 32t17 32z" />
<glyph unicode="y" horiz-adv-x="1146" d="M154 412v489q0 27 9.5 39t39.5 12t39.5 -12t9.5 -39v-489q0 -174 92.5 -267t239.5 -96q154 0 311 92v760q0 27 9.5 39t39.5 12t39.5 -12t9.5 -39v-1048q0 -102 -37 -179t-97.5 -119.5t-138.5 -62.5q-59 -16 -122 -16q-18 0 -37 1q-82 6 -161.5 33t-143.5 72 q-27 19 -27 40q0 12 9 24q11 15 23.5 18.5t23.5 -0.5t30 -16q68 -41 147 -63q66 -18 129 -18q14 0 27 1q76 4 138 32t100.5 93.5t38.5 159.5v200q-164 -86 -324 -86q-183 0 -300 114.5t-117 330.5z" />
<glyph unicode="z" horiz-adv-x="884" d="M72 51q0 23 4.5 34.5t21.5 33.5l588 747h-528q-24 0 -34.5 8t-10.5 35t10.5 35t34.5 8h600q51 0 51 -53q0 -31 -27 -65l-598 -748h580q24 0 34.5 -9t10.5 -36t-10 -34t-35 -7h-641q-51 0 -51 51z" />
<glyph unicode="{" horiz-adv-x="731" d="M123 496q0 18 5 28.5t10 15t20 13.5q32 21 55.5 64t35 88.5t18 108.5t8 104.5t1.5 97.5v397q0 62 62 62h262q26 0 37.5 -9.5t11.5 -35.5q0 -28 -11.5 -38t-37.5 -10h-221v-366q0 -65 -1 -107t-8 -112t-20 -118.5t-39 -100t-63 -82.5q45 -38 74 -100.5t40 -145.5t14 -138 t3 -137v-374h221q26 0 37.5 -9.5t11.5 -37.5q0 -27 -11.5 -36.5t-37.5 -9.5h-262q-62 0 -62 62v405q0 56 -1.5 97.5t-8 104.5t-18 108.5t-35 88.5t-55.5 64q-16 10 -21 14.5t-9.5 15t-4.5 28.5z" />
<glyph unicode="|" horiz-adv-x="526" d="M215 -297v1823q0 27 9.5 39t39.5 12q29 0 38 -12t9 -39v-1823q0 -27 -9 -39t-38 -12q-30 0 -39.5 12t-9.5 39z" />
<glyph unicode="}" horiz-adv-x="731" d="M82 -446q0 28 11.5 37.5t37.5 9.5h221v374q0 82 3 137t14 138t40 145.5t74 100.5q-37 31 -63 82.5t-39 100t-20 118.5t-8 112t-1 107v366h-221q-26 0 -37.5 10t-11.5 38q0 26 11.5 35.5t37.5 9.5h262q62 0 62 -62v-397q0 -56 1.5 -97.5t8 -104.5t18 -108.5t35 -88.5 t55.5 -64q15 -9 20 -13.5t10 -15t5 -28.5q0 -26 -6.5 -35t-28.5 -23q-32 -21 -55.5 -64t-35 -88.5t-18 -108.5t-8 -104.5t-1.5 -97.5v-405q0 -62 -62 -62h-262q-26 0 -37.5 9.5t-11.5 36.5z" />
<glyph unicode="~" horiz-adv-x="1128" d="M104.5 596.5q-2.5 -10.5 8.5 -31.5q11 -19 24 -20t29 8q161 80 371 -21q279 -137 469 -2q16 11 18.5 21t-8.5 31q-11 19 -24 21t-29 -7q-162 -80 -371 20q-279 137 -469 2q-16 -11 -18.5 -21.5z" />
<glyph unicode="&#xa1;" horiz-adv-x="483" d="M164 907q0 32 23 55t55 23t54.5 -23t22.5 -55t-22.5 -55t-54.5 -23t-55 23t-23 55zM186 -451l9 924q0 24 8.5 34.5t34.5 10.5t34.5 -10.5t8.5 -34.5l8 -924q0 -27 -9.5 -39t-41.5 -12t-42 12t-10 39z" />
<glyph unicode="&#xa2;" horiz-adv-x="1058" d="M117 477q-2 204 125 350t319 158v139q0 28 9.5 40t39.5 12q29 0 38 -12.5t9 -39.5v-143q144 -14 269 -115q34 -27 4 -61q-27 -32 -62 -4q-63 51 -137.5 75t-146 20.5t-138.5 -33.5t-117.5 -81.5t-80.5 -130.5t-29 -174q1 -97 35.5 -178t90 -133t128 -81.5t147 -31t149 27 t132.5 85.5q28 28 62 -6q29 -29 -2 -60q-125 -122 -304 -131v-141q0 -27 -9 -39t-38 -12q-30 0 -39.5 12t-9.5 39v141q-199 21 -320.5 164.5t-123.5 343.5z" />
<glyph unicode="&#xa3;" horiz-adv-x="1101" d="M113 61q3 24 37 56q78 71 124 141.5t60 137t9.5 125t-24.5 124.5h-131q-24 0 -34.5 8.5t-10.5 34.5t10.5 34.5t34.5 8.5h97q-6 14 -22 54.5t-21 53t-18 45.5t-17 46t-13 40t-12 42t-7 37t-5.5 40.5t-1.5 38.5q0 169 128.5 276.5t307.5 104.5q99 -3 187 -37.5t145 -97.5 q14 -15 19.5 -25t3.5 -23.5t-19 -27.5q-15 -13 -27.5 -12.5t-18.5 5t-20 18.5q-126 115 -288 112q-130 -3 -224 -84q-47 -39 -70.5 -87.5t-25.5 -98.5t13 -115t37 -127t55 -144q9 -22 14 -34h277q24 0 34.5 -8.5t10.5 -34.5t-10.5 -34.5t-34.5 -8.5h-244q20 -69 23.5 -131 t-12.5 -132.5t-65.5 -145t-132.5 -150.5h734q24 0 34.5 -8.5t10.5 -34.5t-10.5 -34.5t-34.5 -8.5h-791q-61 0 -61 61z" />
<glyph unicode="&#xa4;" horiz-adv-x="1347" d="M145.5 312q-3.5 12 1 20.5t17.5 21.5l121 121q-113 142 -113 324q0 185 113 323l-121 121q-13 13 -17.5 22t-1 21t18.5 27q23 20 36.5 18.5t32.5 -20.5l119 -121q136 117 322 117q182 0 321 -117l119 121q19 19 33 20.5t37 -18.5q15 -15 18.5 -27t-1 -21t-17.5 -22 l-121 -121q113 -138 113 -323q0 -182 -113 -324l121 -121q13 -13 17.5 -21.5t1 -20.5t-18.5 -27q-23 -20 -37 -18.5t-33 20.5l-121 121q-136 -117 -319 -117q-184 0 -320 117l-121 -121q-19 -19 -32.5 -20.5t-36.5 18.5q-15 15 -18.5 27zM274 799q0 -176 116 -297t284 -121 t283.5 120.5t115.5 297.5t-115.5 297.5t-283.5 120.5t-284 -121t-116 -297z" />
<glyph unicode="&#xa5;" horiz-adv-x="1296" d="M103.5 1434q2.5 18 27.5 32q45 25 70 -20l448 -782l445 782q24 44 71 20q44 -23 17 -71l-447 -766h230q24 0 34.5 -7.5t10.5 -33.5t-10.5 -33.5t-34.5 -7.5h-267v-168h267q24 0 34.5 -7.5t10.5 -33.5t-10.5 -33.5t-34.5 -7.5h-267v-246q0 -28 -9 -39.5t-40 -11.5 t-40 11.5t-9 39.5v246h-252q-24 0 -34.5 7.5t-10.5 33.5t10.5 33.5t34.5 7.5h252v168h-252q-24 0 -34.5 7.5t-10.5 33.5t10.5 33.5t34.5 7.5h217l-450 766q-14 21 -11.5 39z" />
<glyph unicode="&#xa6;" horiz-adv-x="526" d="M215 -297v612q0 28 9.5 40t39.5 12q29 0 38 -12.5t9 -39.5v-612q0 -27 -9 -39t-38 -12q-30 0 -39.5 12t-9.5 39zM215 932v594q0 27 9.5 39t39.5 12q29 0 38 -12t9 -39v-594q0 -27 -9 -39t-38 -12q-30 0 -39.5 12t-9.5 39z" />
<glyph unicode="&#xa7;" horiz-adv-x="1253" d="M111 664q0 156 122 249q-110 93 -110 240q0 88 39 156.5t105 110.5t148 63.5t175 23.5q232 3 420 -106q27 -15 33.5 -29.5t-11.5 -40.5q-14 -16 -30.5 -18.5t-26 1.5t-31.5 15q-176 93 -356 90q-158 -3 -260.5 -74t-102.5 -192q0 -45 15 -83.5t45.5 -69t62.5 -53.5 t82.5 -44.5t86.5 -35t93 -31.5q188 -61 257 -93q199 -91 242 -236q13 -43 13 -93q0 -156 -123 -250q111 -96 111 -240q0 -88 -39 -156.5t-105 -110.5t-148 -63.5t-175 -23.5q-230 -3 -420 106q-56 29 -22 70q14 16 30.5 18.5t26 -1.5t31.5 -15q177 -93 356 -90 q158 3 260.5 74t102.5 192q0 54 -24 99.5t-57.5 75.5t-91 59.5t-101 45.5t-111.5 38q-188 61 -257 93q-199 91 -242 236q-13 43 -13 93zM217 668q0 -40 12.5 -74.5t29.5 -60t52 -51t62 -41t77.5 -36t81.5 -31t91 -30.5q200 -67 292 -121q101 68 101 187q0 28 -5 53t-17.5 47 t-24.5 40t-35 35.5t-40.5 30.5t-49.5 28t-52 24t-58.5 23t-59.5 21t-64 21q-196 63 -293 121q-100 -68 -100 -186z" />
<glyph unicode="&#xa8;" horiz-adv-x="782" d="M102 1298q0 32 23 55t55 23t55 -23t23 -55t-23 -54.5t-55 -22.5t-55 22.5t-23 54.5zM524 1298q0 32 23 55t55 23t55 -23t23 -55t-23 -54.5t-55 -22.5t-55 22.5t-23 54.5z" />
<glyph unicode="&#xa9;" horiz-adv-x="1792" d="M133 739q0 209 101.5 386.5t277.5 281.5t385 104q156 0 297.5 -61.5t243 -165t161.5 -246.5t60 -299q0 -157 -60 -300.5t-161.5 -247.5t-243 -166t-297.5 -62q-209 0 -385 104.5t-277.5 283t-101.5 388.5zM240 739q0 -186 87.5 -343t238.5 -248t331 -91q133 0 254.5 53.5 t209 145t139.5 217.5t52 266q0 139 -52 264.5t-139.5 216t-209 144t-254.5 53.5q-135 0 -256.5 -53.5t-209.5 -144t-139.5 -216t-51.5 -264.5zM516 743q-1 93 28.5 169.5t79.5 125.5t117 77.5t138 31t145 -21t137 -72.5q9 -9 13 -14.5t2.5 -16.5t-13.5 -25q-21 -24 -47 -6 q-83 56 -174 68t-164 -18t-120 -108t-46 -190q0 -117 52.5 -197t131 -108t171.5 -14t172 72q25 18 49 -9q14 -18 12.5 -28t-16.5 -23q-58 -52 -131.5 -77t-146.5 -22.5t-143.5 31.5t-124.5 79t-87.5 127t-34.5 169z" />
<glyph unicode="&#xaa;" horiz-adv-x="966" d="M82 1085q0 112 45.5 203t134 145.5t205.5 55.5q157 3 324 -88q43 -22 43 -74v-577q0 -24 -7.5 -33.5t-33.5 -9.5q-25 0 -33 10t-8 33v65q-126 -140 -306 -137q-149 5 -256.5 115t-107.5 292zM172 1085q0 -151 80.5 -236.5t198.5 -90.5q83 -2 162.5 40t134.5 124v417 q-151 77 -281 72q-141 -7 -218 -95.5t-77 -230.5z" />
<glyph unicode="&#xab;" horiz-adv-x="1048" d="M144 588q0 20 20 43l239 274q19 21 31.5 22t38.5 -22q22 -25 21.5 -38.5t-19.5 -32.5l-235 -246l235 -246q19 -19 20 -33t-20 -39q-26 -23 -39.5 -22t-32.5 22l-239 275q-20 23 -20 43zM533 588q0 20 20 43l240 274q19 21 31 22t38 -22q22 -25 21.5 -38.5t-19.5 -32.5 l-235 -246l235 -246q19 -19 20 -33t-20 -39q-26 -23 -39 -22t-32 22l-240 275q-20 23 -20 43z" />
<glyph unicode="&#xac;" horiz-adv-x="1275" d="M102 621q0 26 10.5 34.5t34.5 8.5h920q55 0 55 -56v-323q0 -28 -9 -40t-40 -12t-40 12t-9 40v293h-877q-24 0 -34.5 8.5t-10.5 34.5z" />
<glyph unicode="&#xad;" horiz-adv-x="804" d="M102 614q0 26 10.5 34.5t34.5 8.5h510q24 0 34.5 -8.5t10.5 -34.5t-10.5 -34.5t-34.5 -8.5h-510q-24 0 -34.5 8.5t-10.5 34.5z" />
<glyph unicode="&#xae;" horiz-adv-x="1792" d="M133 739q0 209 101.5 386.5t277.5 281.5t385 104q156 0 297.5 -61.5t243 -165t161.5 -246.5t60 -299q0 -157 -60 -300.5t-161.5 -247.5t-243 -166t-297.5 -62q-209 0 -385 104.5t-277.5 283t-101.5 388.5zM240 739q0 -186 87.5 -343t238.5 -248t331 -91q133 0 254.5 53.5 t209 145t139.5 217.5t52 266q0 139 -52 264.5t-139.5 216t-209 144t-254.5 53.5q-135 0 -256.5 -53.5t-209.5 -144t-139.5 -216t-51.5 -264.5zM651 377v702q0 54 54 54h245q102 0 166 -66.5t64 -163.5q0 -72 -53 -138t-111 -79l141 -287q12 -19 10.5 -34t-24.5 -27 q-27 -12 -40 -7t-24 27l-155 318h-183v-299q0 -26 -8 -36.5t-37 -10.5q-30 0 -37.5 10t-7.5 37zM741 754h209q56 0 98 44.5t42 104.5q0 66 -37.5 109t-102.5 43h-209v-301z" />
<glyph unicode="&#xaf;" horiz-adv-x="811" d="M102 1298q0 43 45 43h517q45 0 45 -43t-45 -43h-517q-45 0 -45 43z" />
<glyph unicode="&#xb0;" horiz-adv-x="790" d="M123 1245q0 108 81.5 187t190.5 79t191 -79t82 -187t-82 -187t-191 -79t-190.5 79t-81.5 187zM223 1245q0 -72 52.5 -124t119.5 -52t119.5 52t52.5 124t-52.5 124t-119.5 52t-119.5 -52t-52.5 -124z" />
<glyph unicode="&#xb1;" horiz-adv-x="1222" d="M123 43q0 26 10.5 34.5t34.5 8.5h887q24 0 34.5 -8.5t10.5 -34.5t-10.5 -34.5t-34.5 -8.5h-887q-24 0 -34.5 8.5t-10.5 34.5zM123 645q0 26 10.5 34.5t34.5 8.5h399v318q0 24 8 34.5t35 10.5t35 -10.5t8 -34.5v-318h402q24 0 34.5 -8.5t10.5 -34.5t-10.5 -34.5 t-34.5 -8.5h-402v-315q0 -24 -8 -34.5t-35 -10.5t-35 10.5t-8 34.5v315h-399q-24 0 -34.5 8.5t-10.5 34.5z" />
<glyph unicode="&#xb2;" horiz-adv-x="618" d="M82 756q0 28 22 53q36 44 80 97t68.5 82.5t55 67t46 57.5t34 45.5t26.5 40.5t16.5 32.5t11 31t2.5 27.5q0 58 -36 89.5t-91 33.5q-91 3 -161 -67q-22 -22 -52 4q-25 23 7 55q81 84 206 84q89 0 152 -53.5t63 -149.5q0 -23 -4.5 -43.5t-20 -49t-29 -49.5t-48.5 -65.5 t-61 -75.5t-84.5 -100.5t-100.5 -120.5h314q21 0 30 -7t9 -30t-9 -29.5t-30 -6.5h-369q-47 0 -47 47z" />
<glyph unicode="&#xb3;" horiz-adv-x="667" d="M88 825q29 26 51 4q68 -68 176 -65q73 3 123.5 43.5t50.5 114.5q0 64 -41.5 107t-103.5 48q-17 2 -25 8.5t-8 26.5q0 21 7.5 28t25.5 9q46 3 79.5 47t33.5 98q0 59 -36 89t-93 30q-86 3 -160 -61q-24 -20 -51 4q-26 23 6 55q41 39 95.5 60.5t109.5 21.5q93 0 155 -52 t62 -151q0 -54 -24.5 -99.5t-65.5 -70.5q123 -63 123 -194q0 -111 -71.5 -173t-174.5 -67q-68 -5 -132 17t-106 67q-32 32 -6 55z" />
<glyph unicode="&#xb4;" horiz-adv-x="509" d="M117 1141q-32 25 2 63l198 236q30 37 72 -2q42 -36 8 -70l-217 -221q-31 -31 -63 -6z" />
<glyph unicode="&#xb6;" horiz-adv-x="1110" d="M143 1092q0 162 107 272.5t280 110.5h304q61 0 61 -62v-1608q0 -27 -9.5 -39t-39.5 -12t-39.5 12t-9.5 39v1584h-168v-1584q0 -27 -9.5 -39t-39.5 -12t-40 12t-10 39v902q-173 0 -280 110.5t-107 274.5z" />
<glyph unicode="&#xb7;" horiz-adv-x="339" d="M82 727q0 37 25.5 62.5t62.5 25.5t62.5 -25.5t25.5 -62.5t-25.5 -62.5t-62.5 -25.5t-62.5 25.5t-25.5 62.5z" />
<glyph unicode="&#xb8;" horiz-adv-x="573" d="M82 -455q12 42 51 31q102 -28 167 -0.5t77 96.5q10 62 -39.5 106t-153.5 27q-37 -6 -53.5 14.5t4.5 51.5l86 125q10 13 23.5 18.5t46.5 5.5q26 0 30 -9t-18 -40l-67 -90q66 6 116 -12.5t75.5 -53.5t36 -75t5.5 -80q-12 -107 -109 -157t-241 -9q-25 7 -34.5 17.5 t-2.5 33.5z" />
<glyph unicode="&#xb9;" horiz-adv-x="352" d="M51 1432q0 23 9 29.5t30 6.5h82q47 0 47 -47v-667q0 -24 -8 -34.5t-35 -10.5t-35 10.5t-8 34.5v641h-43q-21 0 -30 7t-9 30z" />
<glyph unicode="&#xba;" horiz-adv-x="978" d="M82 1083q0 170 119 290t288 120t288.5 -120t119.5 -290q0 -169 -120 -290t-288 -121t-287.5 121t-119.5 290zM172 1083q0 -137 93.5 -235t223.5 -98t224 98t94 235q0 138 -94 235t-224 97t-223.5 -97t-93.5 -235z" />
<glyph unicode="&#xbb;" horiz-adv-x="1048" d="M164 309q1 14 20 33l236 246l-236 246q-19 19 -19.5 32.5t21.5 38.5q26 23 38.5 22t31.5 -22l240 -274q20 -23 20 -43t-20 -43l-240 -275q-19 -21 -32.5 -22t-39.5 22q-21 25 -20 39zM553 309q1 14 20 33l236 246l-236 246q-19 19 -19.5 32.5t21.5 38.5q26 23 38.5 22 t31.5 -22l240 -274q20 -23 20 -43t-20 -43l-240 -275q-19 -21 -32.5 -22t-39.5 22q-21 25 -20 39z" />
<glyph unicode="&#xbc;" horiz-adv-x="1439" d="M51 1432q0 23 9 29.5t30 6.5h82q47 0 47 -47v-667q0 -24 -8 -34.5t-35 -10.5t-35 10.5t-8 34.5v641h-43q-21 0 -30 7t-9 30zM128 43q-1 15 13 31l942 1376q13 21 25.5 24t38.5 -12q23 -16 23.5 -30.5t-13.5 -30.5l-942 -1376q-13 -21 -25 -24.5t-38 11.5q-23 16 -24 31z M844 233q0 27 18 54l314 444q12 18 23.5 24.5t29.5 6.5q25 0 35 -8t10 -31v-463h76q21 0 30 -7t9 -30t-9 -30t-30 -7h-76v-141q0 -24 -8 -34.5t-35 -10.5t-35 10.5t-8 34.5v141h-297q-24 0 -35.5 10.5t-11.5 36.5zM940 260h248v369z" />
<glyph unicode="&#xbd;" horiz-adv-x="1503" d="M51 1432q0 23 9 29.5t30 6.5h82q47 0 47 -47v-667q0 -24 -8 -34.5t-35 -10.5t-35 10.5t-8 34.5v641h-43q-21 0 -30 7t-9 30zM128 43q-1 15 13 31l942 1376q13 21 25.5 24t38.5 -12q23 -16 23.5 -30.5t-13.5 -30.5l-942 -1376q-13 -21 -25 -24.5t-38 11.5q-23 16 -24 31z M967 47q0 28 22 53q35 43 79.5 96.5t69 83t55 67t46 57.5t34 46t26.5 41t16.5 32.5t11 31t2.5 27.5q0 55 -34 87.5t-87 35.5q-42 3 -87 -14.5t-81 -53.5q-22 -22 -51 4q-26 23 6 55q45 46 106.5 68.5t123.5 17.5q83 -8 137.5 -60.5t54.5 -143.5q0 -23 -4.5 -43.5t-20 -49 t-29 -49.5t-48.5 -65.5t-61 -75.5t-84.5 -100.5t-100.5 -120.5h313q21 0 30 -7t9 -30t-9 -30t-30 -7h-368q-47 0 -47 47z" />
<glyph unicode="&#xbe;" horiz-adv-x="1652" d="M88 827q29 26 51 4q68 -68 178 -65q73 3 122.5 43.5t49.5 114.5q0 64 -41.5 107t-103.5 48q-17 2 -25 8.5t-8 26.5q0 21 7.5 28t25.5 9q46 3 79.5 47t33.5 98q0 55 -33 85.5t-84 33.5q-43 3 -89.5 -13t-82.5 -48q-24 -20 -51 4q-26 23 6 55q42 41 100 62.5t117 19.5 q88 -3 146.5 -55t58.5 -148q0 -54 -24.5 -99.5t-65.5 -70.5q123 -63 123 -194q0 -114 -77 -177t-184 -65q-140 0 -223 86q-32 32 -6 55zM341 43q-1 15 13 31l942 1376q13 21 25.5 24t38.5 -12q23 -16 23.5 -30.5t-13.5 -30.5l-942 -1376q-13 -21 -25 -24.5t-38 11.5 q-23 16 -24 31zM1057 233q0 27 18 54l314 444q12 18 23.5 24.5t29.5 6.5q25 0 35 -8t10 -31v-463h76q21 0 30 -7t9 -30t-9 -30t-30 -7h-76v-141q0 -24 -8 -34.5t-35 -10.5t-35 10.5t-8 34.5v141h-297q-24 0 -35.5 10.5t-11.5 36.5zM1153 260h248v369z" />
<glyph unicode="&#xbf;" horiz-adv-x="901" d="M72 -156q0 77 25.5 145.5t65 116.5t89 98.5t94.5 91t83.5 93t55.5 105.5q8 28 18 37t34 8q28 -1 34.5 -11t3.5 -34q-8 -63 -53 -127.5t-102 -120.5t-113 -115.5t-94.5 -135t-38.5 -157.5q0 -127 81 -198.5t204 -73.5q79 0 162 32t153 95q2 1 6 5l5.5 5.5t5.5 4.5t6 4l6 3 t6.5 1.5t6.5 -0.5t7.5 -2t7.5 -4.5t9 -6.5q17 -14 20 -27.5t-3.5 -24t-20.5 -24.5q-163 -153 -377 -153q-162 2 -274.5 102t-112.5 268zM467 907q0 32 23 55t55 23t55 -23t23 -55t-23 -55t-55 -23t-55 23t-23 55z" />
<glyph unicode="&#xc0;" horiz-adv-x="1478" d="M85 32q-6 12 3 34l590 1374q8 20 20.5 27.5t40.5 7.5t41 -8t21 -27l590 -1374q9 -22 2.5 -34t-33.5 -24q-25 -11 -39 -6.5t-23 25.5l-153 376h-811l-154 -376q-17 -41 -63 -19q-26 12 -32 24zM373 494h735l-369 868zM449 1923q-34 34 8 70q42 39 71 2l199 -236 q34 -38 2 -63t-63 6z" />
<glyph unicode="&#xc1;" horiz-adv-x="1478" d="M85 32q-6 12 3 34l590 1374q8 20 20.5 27.5t40.5 7.5t41 -8t21 -27l590 -1374q9 -22 2.5 -34t-33.5 -24q-25 -11 -39 -6.5t-23 25.5l-153 376h-811l-154 -376q-17 -41 -63 -19q-26 12 -32 24zM373 494h735l-369 868zM750 1696q-32 25 2 63l198 236q30 37 72 -2 q42 -36 8 -70l-217 -221q-31 -31 -63 -6z" />
<glyph unicode="&#xc2;" horiz-adv-x="1478" d="M85 32q-6 12 3 34l590 1374q8 20 20.5 27.5t40.5 7.5t41 -8t21 -27l590 -1374q9 -22 2.5 -34t-33.5 -24q-25 -11 -39 -6.5t-23 25.5l-153 376h-811l-154 -376q-17 -41 -63 -19q-26 12 -32 24zM373 494h735l-369 868zM477 1726q-35 41 4 72q171 144 208.5 173.5t51.5 29.5 q12 0 32.5 -15.5t113.5 -94.5q66 -56 110 -93q41 -35 4 -69q-37 -37 -73 -3l-189 183l-188 -183q-40 -37 -74 0z" />
<glyph unicode="&#xc3;" horiz-adv-x="1478" d="M85 32q-6 12 3 34l590 1374q8 20 20.5 27.5t40.5 7.5t41 -8t21 -27l590 -1374q9 -22 2.5 -34t-33.5 -24q-25 -11 -39 -6.5t-23 25.5l-153 376h-811l-154 -376q-17 -41 -63 -19q-26 12 -32 24zM373 494h735l-369 868zM392.5 1882q3.5 15 17.5 25q43 31 88.5 43t94 3 t85.5 -22t88 -37q154 -81 270 -24q32 16 49 -12q7 -12 3.5 -25.5t-15.5 -22.5q-56 -40 -119.5 -47.5t-115 7t-117.5 45.5q-52 27 -92.5 41t-91.5 13.5t-95 -24.5q-27 -18 -45 10q-8 12 -4.5 27z" />
<glyph unicode="&#xc4;" horiz-adv-x="1478" d="M85 32q-6 12 3 34l590 1374q8 20 20.5 27.5t40.5 7.5t41 -8t21 -27l590 -1374q9 -22 2.5 -34t-33.5 -24q-25 -11 -39 -6.5t-23 25.5l-153 376h-811l-154 -376q-17 -41 -63 -19q-26 12 -32 24zM373 494h735l-369 868zM451 1853q0 32 22.5 55t54.5 23t55 -23t23 -55 t-23 -54.5t-55 -22.5t-54.5 22.5t-22.5 54.5zM872 1853q0 32 23 55t55 23t55 -23t23 -55t-23 -54.5t-55 -22.5t-55 22.5t-23 54.5z" />
<glyph unicode="&#xc5;" horiz-adv-x="1478" d="M85 32q-6 12 3 34l590 1374q8 20 20.5 27.5t40.5 7.5t41 -8t21 -27l590 -1374q9 -22 2.5 -34t-33.5 -24q-25 -11 -39 -6.5t-23 25.5l-153 376h-811l-154 -376q-17 -41 -63 -19q-26 12 -32 24zM373 494h735l-369 868zM524 1849q0 86 64 147.5t151 61.5t151 -61.5 t64 -147.5t-64 -147.5t-151 -61.5t-151 61.5t-64 147.5zM623 1849q0 -52 35 -87.5t81 -35.5t81.5 35.5t35.5 87.5t-35.5 87.5t-81.5 35.5t-81 -35.5t-35 -87.5z" />
<glyph unicode="&#xc6;" horiz-adv-x="2183" d="M133.5 40.5q-2.5 15.5 11.5 35.5l895 1360q26 39 74 39h879q25 0 36 -10t11 -38q0 -27 -10.5 -35t-36.5 -8h-760v-575h657q25 0 36 -9.5t11 -35.5q0 -28 -11 -36.5t-36 -8.5h-657v-629h770q25 0 36 -9.5t11 -37.5q0 -27 -10.5 -35t-36.5 -8h-811q-29 0 -45.5 16t-16.5 45 v334h-661l-238 -370q-16 -24 -31 -28.5t-40 11.5q-24 17 -26.5 32.5zM528 485h602v899h-12z" />
<glyph unicode="&#xc7;" horiz-adv-x="1505" d="M133 739q0 154 41.5 282.5t111.5 217t164.5 150.5t200 90.5t217.5 27.5q248 0 443 -141q47 -33 12 -70q-33 -33 -74 -4q-183 123 -381 123q-97 0 -187.5 -26t-171 -81t-141 -133t-95.5 -190.5t-35 -245.5q0 -158 53 -288t141.5 -213t201 -128t234.5 -47q255 -3 455 164 q40 31 70 -6q28 -37 -13 -69q-215 -176 -493 -185l-66 -86q66 6 116 -12.5t75.5 -53.5t36.5 -75t6 -80q-12 -107 -109 -157t-241 -9q-25 7 -34.5 17.5t-2.5 33.5q12 42 51 31q102 -28 167 -0.5t77 96.5q10 62 -39.5 106t-153.5 27q-37 -6 -53.5 14.5t4.5 51.5l67 100 q-105 9 -201 45.5t-179 102t-144 153.5t-96 208t-35 259z" />
<glyph unicode="&#xc8;" horiz-adv-x="1257" d="M215 61v1352q0 29 16 45.5t45 16.5h771q25 0 36 -9.5t11 -35.5q0 -27 -11 -36.5t-36 -9.5h-730v-606h627q25 0 36 -9.5t11 -35.5t-11 -35.5t-36 -9.5h-627v-598h770q25 0 36.5 -9.5t11.5 -35.5t-11.5 -35.5t-36.5 -9.5h-811q-61 0 -61 61zM379 1923q-34 34 8 70 q42 39 72 2l198 -236q34 -38 2 -63t-63 6z" />
<glyph unicode="&#xc9;" horiz-adv-x="1257" d="M215 61v1352q0 29 16 45.5t45 16.5h771q25 0 36 -9.5t11 -35.5q0 -27 -11 -36.5t-36 -9.5h-730v-606h627q25 0 36 -9.5t11 -35.5t-11 -35.5t-36 -9.5h-627v-598h770q25 0 36.5 -9.5t11.5 -35.5t-11.5 -35.5t-36.5 -9.5h-811q-61 0 -61 61zM680 1696q-32 25 2 63l199 236 q29 37 71 -2q42 -37 9 -70l-218 -221q-31 -31 -63 -6z" />
<glyph unicode="&#xca;" horiz-adv-x="1257" d="M215 61v1352q0 29 16 45.5t45 16.5h771q25 0 36 -9.5t11 -35.5q0 -27 -11 -36.5t-36 -9.5h-730v-606h627q25 0 36 -9.5t11 -35.5t-11 -35.5t-36 -9.5h-627v-598h770q25 0 36.5 -9.5t11.5 -35.5t-11.5 -35.5t-36.5 -9.5h-811q-61 0 -61 61zM408 1726q-35 41 4 72 q171 144 208.5 173.5t51.5 29.5q12 0 32.5 -15.5t113.5 -94.5q66 -56 110 -93q41 -35 4 -69q-37 -37 -74 -3l-188 183l-189 -183q-40 -36 -73 0z" />
<glyph unicode="&#xcb;" horiz-adv-x="1257" d="M215 61v1352q0 29 16 45.5t45 16.5h771q25 0 36 -9.5t11 -35.5q0 -27 -11 -36.5t-36 -9.5h-730v-606h627q25 0 36 -9.5t11 -35.5t-11 -35.5t-36 -9.5h-627v-598h770q25 0 36.5 -9.5t11.5 -35.5t-11.5 -35.5t-36.5 -9.5h-811q-61 0 -61 61zM381 1853q0 32 23 55t55 23 t55 -23t23 -55t-23 -54.5t-55 -22.5t-55 22.5t-23 54.5zM803 1853q0 32 23 55t55 23t54.5 -23t22.5 -55t-22.5 -54.5t-54.5 -22.5t-55 22.5t-23 54.5z" />
<glyph unicode="&#xcc;" horiz-adv-x="491" d="M-45 1923q-34 34 8 70q42 39 72 2l198 -236q34 -38 3 -63q-32 -26 -64 6zM195 53v1368q0 29 10.5 41.5t40.5 12.5t40.5 -12.5t10.5 -41.5v-1368q0 -29 -9.5 -41t-41.5 -12t-41.5 12t-9.5 41z" />
<glyph unicode="&#xcd;" horiz-adv-x="491" d="M195 53v1368q0 29 10.5 41.5t40.5 12.5t40.5 -12.5t10.5 -41.5v-1368q0 -29 -9.5 -41t-41.5 -12t-41.5 12t-9.5 41zM256 1696q-32 25 2 63l199 236q29 37 71 -2q42 -37 9 -70l-218 -221q-31 -31 -63 -6z" />
<glyph unicode="&#xce;" horiz-adv-x="491" d="M-16 1726q-35 41 4 72q171 144 208.5 173.5t51.5 29.5q12 0 32.5 -15.5t113.5 -94.5q66 -56 110 -93q41 -35 4 -69q-37 -37 -74 -3l-188 183l-189 -183q-40 -36 -73 0zM195 53v1368q0 29 10.5 41.5t40.5 12.5t40.5 -12.5t10.5 -41.5v-1368q0 -29 -9.5 -41t-41.5 -12 t-41.5 12t-9.5 41z" />
<glyph unicode="&#xcf;" horiz-adv-x="491" d="M-43 1853q0 32 23 55t55 23t55 -23t23 -55t-23 -54.5t-55 -22.5t-55 22.5t-23 54.5zM195 53v1368q0 29 10.5 41.5t40.5 12.5t40.5 -12.5t10.5 -41.5v-1368q0 -29 -9.5 -41t-41.5 -12t-41.5 12t-9.5 41zM379 1853q0 32 23 55t55 23t55 -23t23 -55t-23 -54.5t-55 -22.5 t-55 22.5t-23 54.5z" />
<glyph unicode="&#xd0;" horiz-adv-x="1540" d="M41 743q0 25 11.5 35t35.5 10h131v642q0 45 45 45h410q171 0 310 -55.5t231.5 -153.5t142 -233t49.5 -294q0 -214 -85 -380t-253 -262.5t-395 -96.5h-410q-45 0 -45 45v653h-131q-24 0 -35.5 10t-11.5 35zM322 94h352q197 0 340 82.5t214.5 227t71.5 335.5 q0 289 -165 465t-461 176h-352v-592h403q24 0 35.5 -10t11.5 -35t-11.5 -35t-35.5 -10h-403v-604z" />
<glyph unicode="&#xd1;" horiz-adv-x="1546" d="M201 53v1329q0 35 9 55t40 31q39 11 57 4.5t37 -32.5l899 -1305v1288q0 29 10.5 41.5t40.5 12.5q31 0 41.5 -13t10.5 -41v-1329q0 -20 -1 -28.5t-5 -21.5t-15 -21.5t-29 -14.5q-57 -20 -94 29l-899 1304v-1288q0 -28 -10 -40.5t-41 -12.5t-41 12.5t-10 40.5zM458 1882 q3 15 17 25q43 31 88.5 43t94 3t85.5 -22t88 -37q155 -81 271 -24q32 16 49 -12q7 -12 3.5 -25.5t-15.5 -22.5q-56 -40 -120 -47.5t-115.5 7t-117.5 45.5q-52 27 -92.5 41t-91 13.5t-94.5 -24.5q-27 -18 -45 10q-8 12 -5 27z" />
<glyph unicode="&#xd2;" horiz-adv-x="1767" d="M133 739q0 209 98.5 385.5t271.5 279.5t382 103q208 0 380.5 -103t270.5 -279.5t98 -385.5q0 -157 -58 -299.5t-157 -246.5t-238.5 -165t-295.5 -61q-157 0 -297 61t-239.5 165t-157.5 246.5t-58 299.5zM238 739q0 -187 85 -342.5t233.5 -245.5t328.5 -90q178 0 326.5 90 t233.5 245.5t85 342.5q0 186 -85 340.5t-233.5 244t-326.5 89.5q-180 0 -328.5 -89.5t-233.5 -244t-85 -340.5zM594 1923q-34 34 8 70q42 39 72 2l198 -236q34 -38 2 -63t-63 6z" />
<glyph unicode="&#xd3;" horiz-adv-x="1767" d="M133 739q0 209 98.5 385.5t271.5 279.5t382 103q208 0 380.5 -103t270.5 -279.5t98 -385.5q0 -157 -58 -299.5t-157 -246.5t-238.5 -165t-295.5 -61q-157 0 -297 61t-239.5 165t-157.5 246.5t-58 299.5zM238 739q0 -187 85 -342.5t233.5 -245.5t328.5 -90q178 0 326.5 90 t233.5 245.5t85 342.5q0 186 -85 340.5t-233.5 244t-326.5 89.5q-180 0 -328.5 -89.5t-233.5 -244t-85 -340.5zM895 1696q-32 25 2 63l199 236q29 37 71 -2q42 -37 9 -70l-218 -221q-31 -31 -63 -6z" />
<glyph unicode="&#xd4;" horiz-adv-x="1767" d="M133 739q0 209 98.5 385.5t271.5 279.5t382 103q208 0 380.5 -103t270.5 -279.5t98 -385.5q0 -157 -58 -299.5t-157 -246.5t-238.5 -165t-295.5 -61q-157 0 -297 61t-239.5 165t-157.5 246.5t-58 299.5zM238 739q0 -187 85 -342.5t233.5 -245.5t328.5 -90q178 0 326.5 90 t233.5 245.5t85 342.5q0 186 -85 340.5t-233.5 244t-326.5 89.5q-180 0 -328.5 -89.5t-233.5 -244t-85 -340.5zM623 1726q-35 41 4 72q171 144 208.5 173.5t51.5 29.5q12 0 32.5 -15.5t113.5 -94.5q66 -56 110 -93q41 -35 4 -69q-37 -37 -74 -3l-188 183l-189 -183 q-40 -36 -73 0z" />
<glyph unicode="&#xd5;" horiz-adv-x="1767" d="M133 739q0 209 98.5 385.5t271.5 279.5t382 103q208 0 380.5 -103t270.5 -279.5t98 -385.5q0 -157 -58 -299.5t-157 -246.5t-238.5 -165t-295.5 -61q-157 0 -297 61t-239.5 165t-157.5 246.5t-58 299.5zM238 739q0 -187 85 -342.5t233.5 -245.5t328.5 -90q178 0 326.5 90 t233.5 245.5t85 342.5q0 186 -85 340.5t-233.5 244t-326.5 89.5q-180 0 -328.5 -89.5t-233.5 -244t-85 -340.5zM538 1882q3 15 17 25q43 31 88.5 43t94 3t85.5 -22t88 -37q155 -81 271 -24q32 16 49 -12q7 -12 3.5 -25.5t-15.5 -22.5q-56 -40 -120 -47.5t-115.5 7 t-117.5 45.5q-52 27 -92.5 41t-91 13.5t-94.5 -24.5q-27 -18 -45 10q-8 12 -5 27z" />
<glyph unicode="&#xd6;" horiz-adv-x="1767" d="M133 739q0 209 98.5 385.5t271.5 279.5t382 103q208 0 380.5 -103t270.5 -279.5t98 -385.5q0 -157 -58 -299.5t-157 -246.5t-238.5 -165t-295.5 -61q-157 0 -297 61t-239.5 165t-157.5 246.5t-58 299.5zM238 739q0 -187 85 -342.5t233.5 -245.5t328.5 -90q178 0 326.5 90 t233.5 245.5t85 342.5q0 186 -85 340.5t-233.5 244t-326.5 89.5q-180 0 -328.5 -89.5t-233.5 -244t-85 -340.5zM596 1853q0 32 23 55t55 23t55 -23t23 -55t-23 -54.5t-55 -22.5t-55 22.5t-23 54.5zM1018 1853q0 32 23 55t55 23t55 -23t23 -55t-23 -54.5t-55 -22.5t-55 22.5 t-23 54.5z" />
<glyph unicode="&#xd7;" horiz-adv-x="1099" d="M69.5 180q0.5 13 20.5 33l399 393l-378 373q-20 20 -20.5 32.5t18.5 32.5q23 19 35.5 17t31.5 -21l379 -370l377 370q19 19 31.5 21t35.5 -17q19 -20 18.5 -32.5t-20.5 -32.5l-379 -373l400 -393q20 -20 20.5 -33t-18.5 -33q-14 -13 -25.5 -15.5t-20.5 2.5t-22 18 l-397 391l-399 -391q-13 -13 -22 -18t-20.5 -2.5t-25.5 15.5q-19 20 -18.5 33z" />
<glyph unicode="&#xd8;" horiz-adv-x="1812" d="M156 739q0 157 58 298.5t157.5 244.5t239 164t296.5 61q289 0 494 -186l117 121q13 12 21.5 16t20 1.5t25.5 -15.5q20 -22 19.5 -34.5t-17.5 -31.5l-121 -125q91 -103 141 -235t50 -279q0 -157 -58 -300t-157.5 -246.5t-239 -164.5t-295.5 -61q-283 0 -495 189l-117 -123 q-17 -17 -29.5 -18.5t-36.5 18.5q-19 22 -18.5 34t16.5 31l119 123q-91 104 -140.5 237.5t-49.5 280.5zM262 739q0 -253 154 -444l917 954q-182 164 -426 164q-179 0 -327.5 -89.5t-233 -244t-84.5 -340.5zM479 227q180 -166 428 -166q178 0 326 90t232.5 245.5t84.5 342.5 q0 253 -153 443z" />
<glyph unicode="&#xd9;" horiz-adv-x="1615" d="M215 612v809q0 29 10 41.5t43 12.5q32 0 41.5 -12.5t9.5 -41.5v-809q0 -135 32.5 -237.5t82 -161t119 -95t132 -48t132.5 -11.5q48 0 93.5 6t96 22t93.5 42t83.5 69.5t68 99.5t44.5 136.5t17 177.5v809q0 29 9.5 41.5t41.5 12.5t41.5 -12.5t9.5 -41.5v-809 q0 -113 -20 -207t-53 -159.5t-81.5 -116t-99.5 -80.5t-112.5 -49t-116.5 -26t-115 -7t-115 7t-117 26t-113.5 49t-100 80.5t-82.5 116t-54 159.5t-20 207zM537 1923q-34 34 8 70q42 39 71 2l199 -236q34 -38 2 -63t-63 6z" />
<glyph unicode="&#xda;" horiz-adv-x="1615" d="M215 612v809q0 29 10 41.5t43 12.5q32 0 41.5 -12.5t9.5 -41.5v-809q0 -135 32.5 -237.5t82 -161t119 -95t132 -48t132.5 -11.5q48 0 93.5 6t96 22t93.5 42t83.5 69.5t68 99.5t44.5 136.5t17 177.5v809q0 29 9.5 41.5t41.5 12.5t41.5 -12.5t9.5 -41.5v-809 q0 -113 -20 -207t-53 -159.5t-81.5 -116t-99.5 -80.5t-112.5 -49t-116.5 -26t-115 -7t-115 7t-117 26t-113.5 49t-100 80.5t-82.5 116t-54 159.5t-20 207zM838 1696q-32 25 2 63l198 236q30 37 72 -2q42 -36 8 -70l-217 -221q-31 -31 -63 -6z" />
<glyph unicode="&#xdb;" horiz-adv-x="1615" d="M215 612v809q0 29 10 41.5t43 12.5q32 0 41.5 -12.5t9.5 -41.5v-809q0 -135 32.5 -237.5t82 -161t119 -95t132 -48t132.5 -11.5q48 0 93.5 6t96 22t93.5 42t83.5 69.5t68 99.5t44.5 136.5t17 177.5v809q0 29 9.5 41.5t41.5 12.5t41.5 -12.5t9.5 -41.5v-809 q0 -113 -20 -207t-53 -159.5t-81.5 -116t-99.5 -80.5t-112.5 -49t-116.5 -26t-115 -7t-115 7t-117 26t-113.5 49t-100 80.5t-82.5 116t-54 159.5t-20 207zM565 1726q-35 41 4 72q171 144 208.5 173.5t51.5 29.5q12 0 32.5 -15.5t113.5 -94.5q66 -56 110 -93q41 -36 5 -69 q-37 -37 -74 -3l-189 183l-188 -183q-40 -37 -74 0z" />
<glyph unicode="&#xdc;" horiz-adv-x="1615" d="M215 612v809q0 29 10 41.5t43 12.5q32 0 41.5 -12.5t9.5 -41.5v-809q0 -135 32.5 -237.5t82 -161t119 -95t132 -48t132.5 -11.5q48 0 93.5 6t96 22t93.5 42t83.5 69.5t68 99.5t44.5 136.5t17 177.5v809q0 29 9.5 41.5t41.5 12.5t41.5 -12.5t9.5 -41.5v-809 q0 -113 -20 -207t-53 -159.5t-81.5 -116t-99.5 -80.5t-112.5 -49t-116.5 -26t-115 -7t-115 7t-117 26t-113.5 49t-100 80.5t-82.5 116t-54 159.5t-20 207zM539 1853q0 32 22.5 55t54.5 23t55 -23t23 -55t-23 -54.5t-55 -22.5t-54.5 22.5t-22.5 54.5zM961 1853q0 32 22.5 55 t54.5 23t55 -23t23 -55t-23 -54.5t-55 -22.5t-54.5 22.5t-22.5 54.5z" />
<glyph unicode="&#xdd;" horiz-adv-x="1234" d="M72.5 1434q2.5 18 27.5 32q45 25 70 -20l446 -770l447 770q25 44 72 20q43 -22 16 -71l-483 -830v-514q0 -28 -9.5 -39.5t-40.5 -11.5t-40 11.5t-9 39.5v518l-485 826q-14 21 -11.5 39zM631 1696q-32 25 2 63l198 236q30 37 72 -2q42 -36 8 -70l-217 -221q-31 -31 -63 -6 z" />
<glyph unicode="&#xde;" horiz-adv-x="1298" d="M215 53v1368q0 29 9.5 41.5t41.5 12.5t41.5 -12.5t9.5 -41.5v-247h416q184 0 313.5 -126.5t129.5 -308.5t-129.5 -309t-313.5 -127h-416v-250q0 -29 -9.5 -41t-41.5 -12t-41.5 12t-9.5 41zM317 393h416q141 -3 240.5 94t99.5 252q0 147 -100 245.5t-240 98.5h-416v-690z " />
<glyph unicode="&#xdf;" horiz-adv-x="1316" d="M215 1348q0 48 45 71q56 30 186.5 59t237.5 29q194 0 304 -104t110 -260q0 -98 -45.5 -176t-126.5 -123q282 -106 282 -426q0 -104 -28 -185.5t-76 -132.5t-110.5 -84t-133 -43t-142.5 -5t-139.5 25.5t-123.5 51.5q-26 14 -31 25t6 36q12 25 29 26.5t41 -11.5 q71 -30 142 -45.5t139.5 -15.5t127.5 22t103.5 63t70 112t25.5 165q0 57 -10 104.5t-25 82t-40 62.5t-48 45.5t-57 31t-58 20t-59 11t-53.5 5.5t-48.5 2q-23 0 -34 9t-11 36q0 25 10.5 33t34.5 10q31 3 56 8t62 15.5t64.5 29t53.5 45.5t40 69t14 94q0 135 -91 209.5 t-242 74.5q-159 0 -349 -67l-2 -1792q0 -28 -9.5 -40t-39.5 -12t-39.5 12t-9.5 40z" />
<glyph unicode="&#xe0;" d="M113 477q0 221 142.5 364.5t344.5 143.5q199 0 408 -117q43 -22 43 -73v-744q0 -27 -10.5 -39t-39.5 -12t-39 12t-10 39v90q-86 -86 -187 -130t-202 -44q-91 0 -172 34t-143 97.5t-98.5 161.5t-36.5 217zM215 475q0 -191 101.5 -302t248.5 -116q103 -3 205.5 47.5 t181.5 151.5v549q-181 90 -352 90q-161 0 -273 -116t-112 -304zM336 1368q-34 34 8 70q42 39 72 2l198 -236q34 -38 2 -63t-63 6z" />
<glyph unicode="&#xe1;" d="M113 477q0 221 142.5 364.5t344.5 143.5q199 0 408 -117q43 -22 43 -73v-744q0 -27 -10.5 -39t-39.5 -12t-39 12t-10 39v90q-86 -86 -187 -130t-202 -44q-91 0 -172 34t-143 97.5t-98.5 161.5t-36.5 217zM215 475q0 -191 101.5 -302t248.5 -116q103 -3 205.5 47.5 t181.5 151.5v549q-181 90 -352 90q-161 0 -273 -116t-112 -304zM637 1141q-32 25 2 63l199 236q29 37 71 -2q42 -37 9 -70l-218 -221q-31 -31 -63 -6z" />
<glyph unicode="&#xe2;" d="M113 477q0 221 142.5 364.5t344.5 143.5q199 0 408 -117q43 -22 43 -73v-744q0 -27 -10.5 -39t-39.5 -12t-39 12t-10 39v90q-86 -86 -187 -130t-202 -44q-91 0 -172 34t-143 97.5t-98.5 161.5t-36.5 217zM215 475q0 -191 101.5 -302t248.5 -116q103 -3 205.5 47.5 t181.5 151.5v549q-181 90 -352 90q-161 0 -273 -116t-112 -304zM365 1171q-35 41 4 72q171 144 208.5 173.5t51.5 29.5q12 0 32.5 -15.5t113.5 -94.5q66 -56 110 -93q41 -35 4 -69q-37 -37 -74 -3l-188 183l-189 -183q-40 -36 -73 0z" />
<glyph unicode="&#xe3;" d="M113 477q0 221 142.5 364.5t344.5 143.5q199 0 408 -117q43 -22 43 -73v-744q0 -27 -10.5 -39t-39.5 -12t-39 12t-10 39v90q-86 -86 -187 -130t-202 -44q-91 0 -172 34t-143 97.5t-98.5 161.5t-36.5 217zM215 475q0 -191 101.5 -302t248.5 -116q103 -3 205.5 47.5 t181.5 151.5v549q-181 90 -352 90q-161 0 -273 -116t-112 -304zM280 1327q3 15 17 25q43 31 88.5 43t94 3t85.5 -22t88 -37q155 -81 271 -24q32 16 49 -12q7 -12 3.5 -25.5t-15.5 -22.5q-56 -40 -120 -47.5t-115.5 7t-117.5 45.5q-52 27 -92.5 41t-91 13.5t-94.5 -24.5 q-27 -18 -45 10q-8 12 -5 27z" />
<glyph unicode="&#xe4;" d="M113 477q0 221 142.5 364.5t344.5 143.5q199 0 408 -117q43 -22 43 -73v-744q0 -27 -10.5 -39t-39.5 -12t-39 12t-10 39v90q-86 -86 -187 -130t-202 -44q-91 0 -172 34t-143 97.5t-98.5 161.5t-36.5 217zM215 475q0 -191 101.5 -302t248.5 -116q103 -3 205.5 47.5 t181.5 151.5v549q-181 90 -352 90q-161 0 -273 -116t-112 -304zM338 1298q0 32 23 55t55 23t55 -23t23 -55t-23 -54.5t-55 -22.5t-55 22.5t-23 54.5zM760 1298q0 32 23 55t55 23t54.5 -23t22.5 -55t-22.5 -54.5t-54.5 -22.5t-55 22.5t-23 54.5z" />
<glyph unicode="&#xe5;" d="M113 477q0 221 142.5 364.5t344.5 143.5q199 0 408 -117q43 -22 43 -73v-744q0 -27 -10.5 -39t-39.5 -12t-39 12t-10 39v90q-86 -86 -187 -130t-202 -44q-91 0 -172 34t-143 97.5t-98.5 161.5t-36.5 217zM215 475q0 -191 101.5 -302t248.5 -116q103 -3 205.5 47.5 t181.5 151.5v549q-181 90 -352 90q-161 0 -273 -116t-112 -304zM430 1319q0 77 58 132.5t137 55.5t136.5 -55.5t57.5 -132.5q0 -78 -58 -133.5t-136 -55.5q-79 0 -137 56t-58 133zM520 1319q0 -46 32.5 -77.5t72.5 -31.5t72 31.5t32 77.5t-32 77t-72 31t-72.5 -31t-32.5 -77 z" />
<glyph unicode="&#xe6;" horiz-adv-x="1892" d="M113 332q-1 94 32 165.5t92 113.5t130.5 62.5t152.5 20.5q105 2 203.5 -29.5t159.5 -86.5v77q0 63 -18.5 109.5t-49 74.5t-75.5 44t-94 19.5t-107.5 -2t-112.5 -16t-113 -26.5q-39 -12 -49 25q-11 38 29 51q155 51 319 51q155 0 243 -52t116 -159q66 99 170 155t233 56 q194 3 315 -116q89 -88 100 -199q9 -105 -62 -162q-51 -41 -134 -41h-608q1 -98 35.5 -178.5t89.5 -131t122.5 -77.5t139.5 -27q151 0 287 94q37 26 61 -4q27 -33 -2 -59q-139 -117 -346 -117q-124 0 -231 59t-176 164q-58 -89 -188 -152t-267 -69q-79 -4 -147 13.5 t-124.5 58t-90 115t-35.5 176.5zM215 332q0 -135 84 -208t211 -75q99 -2 199 39.5t174 120.5v260q-52 69 -152.5 110t-206.5 39q-62 -2 -116 -19t-98 -50.5t-69.5 -89t-25.5 -127.5zM991 553h602q73 0 92 63q18 64 -31 141q-61 96 -181 127q-47 12 -99 11q-153 -1 -257 -96 t-126 -246z" />
<glyph unicode="&#xe7;" horiz-adv-x="1062" d="M113 473q0 124 39.5 221t105 155t149.5 92t172.5 38t173 -13.5t152.5 -56.5q27 -15 32.5 -29.5t-11.5 -41.5q-17 -22 -36 -22t-44 15q-53 29 -119 43t-137 12t-138 -28t-120 -72t-85 -127t-32 -186q1 -113 44.5 -200t114.5 -133.5t157 -65.5t177 -3t169 62q38 22 50 21 q14 -1 29 -17q14 -16 15.5 -28.5t-5.5 -21t-24 -21.5q-137 -92 -301 -95l-68 -90q66 6 116 -12.5t75.5 -53.5t36.5 -75t6 -80q-12 -107 -109 -157t-241 -9q-25 7 -34.5 17.5t-2.5 33.5q12 42 51 31q102 -28 167 -0.5t77 96.5q10 62 -39.5 106t-153.5 27q-37 -6 -53.5 14.5 t4.5 51.5l72 104q-87 12 -162.5 48.5t-136.5 97t-96.5 151t-36.5 201.5z" />
<glyph unicode="&#xe8;" horiz-adv-x="1099" d="M113 467q0 145 59 262.5t169.5 186.5t252.5 69q194 3 316 -116q90 -88 100 -199q10 -105 -60 -161q-52 -42 -137 -42h-598q1 -103 34.5 -182t91.5 -126t128.5 -70t151.5 -23q131 0 245 57q23 11 34 15t25 1t25 -18q12 -17 12 -29.5t-8.5 -21t-27.5 -19.5 q-76 -44 -165.5 -65t-179.5 -18t-174.5 36.5t-149.5 91.5t-104.5 154t-39.5 217zM221 553h590q75 0 94 63q19 64 -30 140q-60 95 -178 127q-49 13 -103 12q-152 -1 -251.5 -95t-121.5 -247zM293 1368q-34 34 8 70q42 39 72 2l198 -236q34 -38 2 -63t-63 6z" />
<glyph unicode="&#xe9;" horiz-adv-x="1099" d="M113 467q0 145 59 262.5t169.5 186.5t252.5 69q194 3 316 -116q90 -88 100 -199q10 -105 -60 -161q-52 -42 -137 -42h-598q1 -103 34.5 -182t91.5 -126t128.5 -70t151.5 -23q131 0 245 57q23 11 34 15t25 1t25 -18q12 -17 12 -29.5t-8.5 -21t-27.5 -19.5 q-76 -44 -165.5 -65t-179.5 -18t-174.5 36.5t-149.5 91.5t-104.5 154t-39.5 217zM221 553h590q75 0 94 63q19 64 -30 140q-60 95 -178 127q-49 13 -103 12q-152 -1 -251.5 -95t-121.5 -247zM594 1141q-32 25 2 63l199 236q29 37 71 -2q42 -36 8 -70l-217 -221 q-31 -31 -63 -6z" />
<glyph unicode="&#xea;" horiz-adv-x="1099" d="M113 467q0 145 59 262.5t169.5 186.5t252.5 69q194 3 316 -116q90 -88 100 -199q10 -105 -60 -161q-52 -42 -137 -42h-598q1 -103 34.5 -182t91.5 -126t128.5 -70t151.5 -23q131 0 245 57q23 11 34 15t25 1t25 -18q12 -17 12 -29.5t-8.5 -21t-27.5 -19.5 q-76 -44 -165.5 -65t-179.5 -18t-174.5 36.5t-149.5 91.5t-104.5 154t-39.5 217zM221 553h590q75 0 94 63q19 64 -30 140q-60 95 -178 127q-49 13 -103 12q-152 -1 -251.5 -95t-121.5 -247zM322 1171q-35 41 4 72q171 144 208.5 173.5t51.5 29.5q12 0 32.5 -15.5 t113.5 -94.5q66 -56 110 -93q41 -35 4 -69q-37 -37 -74 -3l-188 183l-189 -183q-40 -36 -73 0z" />
<glyph unicode="&#xeb;" horiz-adv-x="1099" d="M113 467q0 145 59 262.5t169.5 186.5t252.5 69q194 3 316 -116q90 -88 100 -199q10 -105 -60 -161q-52 -42 -137 -42h-598q1 -103 34.5 -182t91.5 -126t128.5 -70t151.5 -23q131 0 245 57q23 11 34 15t25 1t25 -18q12 -17 12 -29.5t-8.5 -21t-27.5 -19.5 q-76 -44 -165.5 -65t-179.5 -18t-174.5 36.5t-149.5 91.5t-104.5 154t-39.5 217zM221 553h590q75 0 94 63q19 64 -30 140q-60 95 -178 127q-49 13 -103 12q-152 -1 -251.5 -95t-121.5 -247zM295 1298q0 32 23 55t55 23t55 -23t23 -55t-23 -54.5t-55 -22.5t-55 22.5t-23 54.5 zM717 1298q0 32 23 55t55 23t54.5 -23t22.5 -55t-22.5 -54.5t-54.5 -22.5t-55 22.5t-23 54.5z" />
<glyph unicode="&#xec;" horiz-adv-x="454" d="M-68 1368q-33 33 9 70q42 39 71 2l199 -236q34 -38 2 -63t-63 6zM174 51v850q0 27 9.5 39t39.5 12t39.5 -12t9.5 -39v-850q0 -27 -9.5 -39t-39.5 -12t-39.5 12t-9.5 39z" />
<glyph unicode="&#xed;" horiz-adv-x="454" d="M174 51v850q0 27 9.5 39t39.5 12t39.5 -12t9.5 -39v-850q0 -27 -9.5 -39t-39.5 -12t-39.5 12t-9.5 39zM233 1141q-31 25 3 63l198 236q30 37 72 -2q42 -36 8 -70l-217 -221q-32 -32 -64 -6z" />
<glyph unicode="&#xee;" horiz-adv-x="454" d="M-39 1171q-35 41 4 72q171 144 208.5 173.5t51.5 29.5q12 0 32.5 -15.5t113.5 -94.5q66 -56 110 -93q41 -35 4 -69q-37 -37 -73 -3l-189 183l-188 -183q-40 -37 -74 0zM174 51v850q0 27 9.5 39t39.5 12t39.5 -12t9.5 -39v-850q0 -27 -9.5 -39t-39.5 -12t-39.5 12t-9.5 39 z" />
<glyph unicode="&#xef;" horiz-adv-x="454" d="M-66 1298q0 32 23 55t55 23t55 -23t23 -55t-23 -54.5t-55 -22.5t-55 22.5t-23 54.5zM174 51v850q0 27 9.5 39t39.5 12t39.5 -12t9.5 -39v-850q0 -27 -9.5 -39t-39.5 -12t-39.5 12t-9.5 39zM356 1298q0 32 23 55t55 23t55 -23t23 -55t-23 -54.5t-55 -22.5t-55 22.5 t-23 54.5z" />
<glyph unicode="&#xf0;" horiz-adv-x="1124" d="M113 412q0 97 33 177t89.5 133t129 84.5t155.5 37.5q184 13 334 -84q-68 186 -199 370l-143 -104q-39 -26 -63 8q-26 37 12 64l141 102q-73 94 -164 178q-18 18 -18.5 32t18.5 34q34 32 66 0q87 -81 174 -189l133 99q40 27 63 -8q27 -36 -12 -64l-131 -96 q134 -185 207.5 -378t73.5 -366q0 -223 -116.5 -351t-328.5 -128q-89 0 -171 32t-145 89t-100.5 142.5t-37.5 185.5zM215 410q0 -108 51 -191t130.5 -124.5t172.5 -41.5q173 0 259.5 104t86.5 294q0 89 -26 200q-143 110 -328 107q-87 -1 -155 -30.5t-108.5 -78.5 t-61.5 -109.5t-21 -129.5z" />
<glyph unicode="&#xf1;" horiz-adv-x="1181" d="M174 51v774q0 53 57 78q188 84 365 84q92 -2 168.5 -29t136 -80t92.5 -139t33 -198v-490q0 -27 -9.5 -39t-39.5 -12t-39.5 12t-9.5 39v490q0 179 -93.5 266t-250.5 90q-142 3 -312 -63v-783q0 -27 -9.5 -39t-39.5 -12t-39.5 12t-9.5 39zM235 1327q3 15 17 25 q43 31 88.5 43t94 3t85.5 -22t88 -37q155 -81 271 -24q32 16 49 -12q16 -26 -13 -48q-56 -40 -119.5 -47.5t-115 7t-117.5 45.5q-52 27 -92.5 41t-91 13.5t-94.5 -24.5q-27 -18 -45 10q-8 12 -5 27z" />
<glyph unicode="&#xf2;" horiz-adv-x="1228" d="M113 477q0 211 145.5 359.5t355.5 148.5t356 -148.5t146 -359.5q0 -139 -66.5 -256t-182 -185.5t-253.5 -68.5t-253.5 68.5t-181.5 185.5t-66 256zM215 477q0 -176 116.5 -298t282.5 -122t283 122t117 298t-116 297t-284 121t-283.5 -120.5t-115.5 -297.5zM324 1368 q-34 34 8 70q42 39 71 2l199 -236q34 -38 2 -63t-63 6z" />
<glyph unicode="&#xf3;" horiz-adv-x="1228" d="M113 477q0 211 145.5 359.5t355.5 148.5t356 -148.5t146 -359.5q0 -139 -66.5 -256t-182 -185.5t-253.5 -68.5t-253.5 68.5t-181.5 185.5t-66 256zM215 477q0 -176 116.5 -298t282.5 -122t283 122t117 298t-116 297t-284 121t-283.5 -120.5t-115.5 -297.5zM625 1141 q-32 25 2 63l198 236q30 37 72 -2q42 -36 8 -70l-217 -221q-31 -31 -63 -6z" />
<glyph unicode="&#xf4;" horiz-adv-x="1228" d="M113 477q0 211 145.5 359.5t355.5 148.5t356 -148.5t146 -359.5q0 -139 -66.5 -256t-182 -185.5t-253.5 -68.5t-253.5 68.5t-181.5 185.5t-66 256zM215 477q0 -176 116.5 -298t282.5 -122t283 122t117 298t-116 297t-284 121t-283.5 -120.5t-115.5 -297.5zM352 1171 q-35 41 4 72q171 144 208.5 173.5t51.5 29.5q12 0 32.5 -15.5t113.5 -94.5q66 -56 110 -93q41 -36 5 -69q-37 -37 -74 -3l-189 183l-188 -183q-40 -37 -74 0z" />
<glyph unicode="&#xf5;" horiz-adv-x="1228" d="M113 477q0 211 145.5 359.5t355.5 148.5t356 -148.5t146 -359.5q0 -139 -66.5 -256t-182 -185.5t-253.5 -68.5t-253.5 68.5t-181.5 185.5t-66 256zM215 477q0 -176 116.5 -298t282.5 -122t283 122t117 298t-116 297t-284 121t-283.5 -120.5t-115.5 -297.5zM267.5 1327 q3.5 15 17.5 25q43 31 88.5 43t94 3t85.5 -22t88 -37q154 -81 270 -24q32 16 50 -12q16 -26 -13 -48q-56 -40 -119.5 -47.5t-115 7t-117.5 45.5q-52 27 -92.5 41t-91.5 13.5t-95 -24.5q-27 -18 -45 10q-8 12 -4.5 27z" />
<glyph unicode="&#xf6;" horiz-adv-x="1228" d="M113 477q0 211 145.5 359.5t355.5 148.5t356 -148.5t146 -359.5q0 -139 -66.5 -256t-182 -185.5t-253.5 -68.5t-253.5 68.5t-181.5 185.5t-66 256zM215 477q0 -176 116.5 -298t282.5 -122t283 122t117 298t-116 297t-284 121t-283.5 -120.5t-115.5 -297.5zM326 1298 q0 32 22.5 55t54.5 23t55 -23t23 -55t-23 -54.5t-55 -22.5t-54.5 22.5t-22.5 54.5zM748 1298q0 32 22.5 55t54.5 23t55 -23t23 -55t-23 -54.5t-55 -22.5t-54.5 22.5t-22.5 54.5z" />
<glyph unicode="&#xf7;" horiz-adv-x="1150" d="M102 604q0 26 10.5 34.5t34.5 8.5h857q24 0 34.5 -8.5t10.5 -34.5t-10.5 -34.5t-34.5 -8.5h-857q-24 0 -34.5 8.5t-10.5 34.5zM487 305q0 37 25.5 62.5t62.5 25.5t63 -25.5t26 -62.5t-26 -62.5t-63 -25.5t-62.5 25.5t-25.5 62.5zM487 895q0 37 25.5 62.5t62.5 25.5 t63 -25.5t26 -62.5t-26 -62.5t-63 -25.5t-62.5 25.5t-25.5 62.5z" />
<glyph unicode="&#xf8;" horiz-adv-x="1228" d="M113 477q0 211 145.5 359.5t355.5 148.5q195 0 332 -127l80 76q21 19 34.5 20t37.5 -22q20 -24 17.5 -36.5t-23.5 -31.5l-80 -76q104 -136 104 -311q0 -139 -66.5 -256t-182 -185.5t-253.5 -68.5q-191 0 -333 129l-80 -76q-14 -13 -23 -17.5t-20.5 -1t-24.5 18.5 q-20 25 -18 38t22 32l80 76q-104 136 -104 311zM219 436.5q9 -106.5 68 -203.5l592 560q-87 71 -187.5 91.5t-189 -6t-154.5 -90.5q-69 -66 -103.5 -155.5t-25.5 -196zM350 162q93 -73 193.5 -93.5t185.5 6t152 91.5q69 66 103.5 155.5t25.5 196t-68 203.5z" />
<glyph unicode="&#xf9;" horiz-adv-x="1150" d="M154 412v489q0 27 9.5 39t39.5 12t39.5 -12t9.5 -39v-489q0 -175 87 -263t232 -94q144 -6 324 64v782q0 27 9.5 39t39.5 12t39.5 -12t9.5 -39v-774q0 -53 -57 -78q-187 -85 -350 -82q-91 0 -168 26.5t-137 79t-93.5 139.5t-33.5 200zM287 1368q-34 34 8 70q42 39 72 2 l198 -236q34 -38 2 -63t-63 6z" />
<glyph unicode="&#xfa;" horiz-adv-x="1150" d="M154 412v489q0 27 9.5 39t39.5 12t39.5 -12t9.5 -39v-489q0 -175 87 -263t232 -94q144 -6 324 64v782q0 27 9.5 39t39.5 12t39.5 -12t9.5 -39v-774q0 -53 -57 -78q-187 -85 -350 -82q-91 0 -168 26.5t-137 79t-93.5 139.5t-33.5 200zM588 1141q-32 25 2 63l198 236 q30 37 72 -2q42 -36 8 -70l-217 -221q-31 -31 -63 -6z" />
<glyph unicode="&#xfb;" horiz-adv-x="1150" d="M154 412v489q0 27 9.5 39t39.5 12t39.5 -12t9.5 -39v-489q0 -175 87 -263t232 -94q144 -6 324 64v782q0 27 9.5 39t39.5 12t39.5 -12t9.5 -39v-774q0 -53 -57 -78q-187 -85 -350 -82q-91 0 -168 26.5t-137 79t-93.5 139.5t-33.5 200zM315 1171q-35 41 4 72 q169 142 208 172.5t53 30.5q12 0 32.5 -15.5t113.5 -94.5q66 -56 110 -93q41 -35 4 -69q-37 -37 -74 -3l-188 183l-189 -183q-40 -37 -74 0z" />
<glyph unicode="&#xfc;" horiz-adv-x="1150" d="M154 412v489q0 27 9.5 39t39.5 12t39.5 -12t9.5 -39v-489q0 -175 87 -263t232 -94q144 -6 324 64v782q0 27 9.5 39t39.5 12t39.5 -12t9.5 -39v-774q0 -53 -57 -78q-187 -85 -350 -82q-91 0 -168 26.5t-137 79t-93.5 139.5t-33.5 200zM289 1298q0 32 23 55t55 23t54.5 -23 t22.5 -55t-22.5 -54.5t-54.5 -22.5t-55 22.5t-23 54.5zM711 1298q0 32 22.5 55t54.5 23t55 -23t23 -55t-23 -54.5t-55 -22.5t-54.5 22.5t-22.5 54.5z" />
<glyph unicode="&#xfd;" horiz-adv-x="1146" d="M154 412v489q0 27 9.5 39t39.5 12t39.5 -12t9.5 -39v-489q0 -174 92.5 -267t239.5 -96q154 0 311 92v760q0 27 9.5 39t39.5 12t39.5 -12t9.5 -39v-1048q0 -102 -37 -179t-97.5 -119.5t-138 -63t-159.5 -14.5t-161.5 33t-143.5 72q-43 30 -18 64q11 15 23.5 18.5 t23.5 -0.5t30 -16q68 -41 147 -63t155.5 -17.5t138.5 32.5t100.5 93.5t38.5 159.5v200q-164 -86 -324 -86q-183 0 -300 114.5t-117 330.5zM594 1141q-32 25 2 63l199 236q29 37 71 -2q42 -36 8 -70l-217 -221q-31 -31 -63 -6z" />
<glyph unicode="&#xfe;" horiz-adv-x="1228" d="M184 -440v1863q0 28 9.5 40t39.5 12t40 -12.5t10 -39.5v-526q180 88 352 88q228 0 368 -141t140 -367q0 -139 -63.5 -256t-176 -185.5t-250.5 -68.5q-216 0 -370 154v-561q0 -27 -10 -39.5t-40 -12.5t-39.5 12t-9.5 40zM283 244q137 -187 372 -187q165 0 275 120t110 298 q0 193 -109.5 306.5t-295.5 113.5q-171 0 -352 -90v-561z" />
<glyph unicode="&#xff;" horiz-adv-x="1146" d="M154 412v489q0 27 9.5 39t39.5 12t39.5 -12t9.5 -39v-489q0 -174 92.5 -267t239.5 -96q154 0 311 92v760q0 27 9.5 39t39.5 12t39.5 -12t9.5 -39v-1048q0 -102 -37 -179t-97.5 -119.5t-138 -63t-159.5 -14.5t-161.5 33t-143.5 72q-43 30 -18 64q11 15 23.5 18.5 t23.5 -0.5t30 -16q68 -41 147 -63t155.5 -17.5t138.5 32.5t100.5 93.5t38.5 159.5v200q-164 -86 -324 -86q-183 0 -300 114.5t-117 330.5zM295 1298q0 32 23 55t55 23t55 -23t23 -55t-23 -54.5t-55 -22.5t-55 22.5t-23 54.5zM717 1298q0 32 23 55t55 23t54.5 -23t22.5 -55 t-22.5 -54.5t-54.5 -22.5t-55 22.5t-23 54.5z" />
<glyph unicode="&#x152;" horiz-adv-x="2699" d="M166 739q0 209 98.5 385.5t271.5 279.5t382 103q206 0 377 -102t270 -275v283q0 29 16 45.5t45 16.5h801q25 0 36 -9.5t11 -35.5q0 -27 -11 -36.5t-36 -9.5h-760v-575h657q25 0 36.5 -9.5t11.5 -35.5t-11.5 -35.5t-36.5 -9.5h-657v-629h770q25 0 36 -9.5t11 -35.5 t-11 -35.5t-36 -9.5h-811q-61 0 -61 61v285q-99 -174 -269.5 -276.5t-377.5 -102.5q-157 0 -297 61t-239.5 165t-157.5 246.5t-58 299.5zM272 739q0 -187 84.5 -342.5t233.5 -245.5t328 -90q178 0 326 90t232.5 245.5t84.5 342.5q0 186 -84.5 340.5t-232.5 244t-326 89.5 q-180 0 -328.5 -89.5t-233 -244t-84.5 -340.5z" />
<glyph unicode="&#x153;" horiz-adv-x="2011" d="M113 477q0 211 145.5 359.5t355.5 148.5q147 0 266.5 -75.5t182.5 -202.5q58 127 174.5 202.5t267.5 75.5q194 3 315 -116q89 -88 100 -199q9 -104 -61 -161q-51 -42 -135 -42h-608q1 -98 33.5 -176.5t84.5 -127.5t121 -76.5t142.5 -29t150 21t142.5 68.5q37 26 61 -4 q27 -33 -2 -59q-124 -103 -283 -116.5t-297.5 62.5t-205.5 218q-63 -127 -183 -204t-266 -77q-138 0 -253.5 68.5t-181.5 185.5t-66 256zM215 477q0 -176 116.5 -298t282.5 -122t283 122t117 298t-116 297t-284 121t-283.5 -120.5t-115.5 -297.5zM1122 553h602q74 0 93 63 q19 64 -29 140q-60 96 -180 127q-48 13 -103 12q-153 -1 -257 -96t-126 -246z" />
<glyph unicode="&#x178;" horiz-adv-x="1234" d="M72.5 1434q2.5 18 27.5 32q45 25 70 -20l446 -770l447 770q25 44 72 20q43 -22 16 -71l-483 -830v-514q0 -28 -9.5 -39.5t-40.5 -11.5t-40 11.5t-9 39.5v518l-485 826q-14 21 -11.5 39zM332 1853q0 32 23 55t55 23t54.5 -23t22.5 -55t-22.5 -54.5t-54.5 -22.5t-55 22.5 t-23 54.5zM754 1853q0 32 22.5 55t54.5 23t55 -23t23 -55t-23 -54.5t-55 -22.5t-54.5 22.5t-22.5 54.5z" />
<glyph unicode="&#x2c6;" horiz-adv-x="763" d="M119 1171q-35 41 4 72q171 144 208.5 173.5t51.5 29.5q12 0 32.5 -15.5t113.5 -94.5q66 -56 110 -93q41 -35 4 -69q-37 -37 -74 -3l-188 183l-188 -183q-40 -37 -74 0z" />
<glyph unicode="&#x2dc;" horiz-adv-x="903" d="M104 1327q3 15 17 25q43 31 88.5 43t94 3t85.5 -22t88 -37q155 -81 271 -24q32 16 49 -12q16 -26 -13 -48q-56 -40 -119.5 -47.5t-115 7t-117.5 45.5q-52 27 -92.5 41t-91 13.5t-94.5 -24.5q-27 -18 -45 10q-8 12 -5 27z" />
<glyph unicode="&#x2000;" horiz-adv-x="1029" />
<glyph unicode="&#x2001;" horiz-adv-x="2058" />
<glyph unicode="&#x2002;" horiz-adv-x="1029" />
<glyph unicode="&#x2003;" horiz-adv-x="2058" />
<glyph unicode="&#x2004;" horiz-adv-x="686" />
<glyph unicode="&#x2005;" horiz-adv-x="514" />
<glyph unicode="&#x2006;" horiz-adv-x="343" />
<glyph unicode="&#x2007;" horiz-adv-x="343" />
<glyph unicode="&#x2008;" horiz-adv-x="257" />
<glyph unicode="&#x2009;" horiz-adv-x="411" />
<glyph unicode="&#x200a;" horiz-adv-x="114" />
<glyph unicode="&#x2010;" horiz-adv-x="804" d="M102 614q0 26 10.5 34.5t34.5 8.5h510q24 0 34.5 -8.5t10.5 -34.5t-10.5 -34.5t-34.5 -8.5h-510q-24 0 -34.5 8.5t-10.5 34.5z" />
<glyph unicode="&#x2011;" horiz-adv-x="804" d="M102 614q0 26 10.5 34.5t34.5 8.5h510q24 0 34.5 -8.5t10.5 -34.5t-10.5 -34.5t-34.5 -8.5h-510q-24 0 -34.5 8.5t-10.5 34.5z" />
<glyph unicode="&#x2012;" horiz-adv-x="804" d="M102 614q0 26 10.5 34.5t34.5 8.5h510q24 0 34.5 -8.5t10.5 -34.5t-10.5 -34.5t-34.5 -8.5h-510q-24 0 -34.5 8.5t-10.5 34.5z" />
<glyph unicode="&#x2013;" horiz-adv-x="1030" d="M102 614q0 26 10.5 34.5t34.5 8.5h736q24 0 34.5 -8.5t10.5 -34.5t-10.5 -34.5t-34.5 -8.5h-736q-24 0 -34.5 8.5t-10.5 34.5z" />
<glyph unicode="&#x2014;" horiz-adv-x="1730" d="M102 614q0 26 10.5 34.5t34.5 8.5h1436q24 0 34.5 -8.5t10.5 -34.5t-10.5 -34.5t-34.5 -8.5h-1436q-24 0 -34.5 8.5t-10.5 34.5z" />
<glyph unicode="&#x2018;" horiz-adv-x="518" d="M156 1245q10 127 104 248q20 26 51 2q15 -12 15.5 -23.5t-13.5 -33.5q-72 -110 -67 -203q44 1 71 -24.5t27 -63.5q0 -37 -25.5 -62.5t-62.5 -25.5q-59 0 -83 51.5t-17 134.5z" />
<glyph unicode="&#x2019;" horiz-adv-x="477" d="M154 1419q0 37 25.5 62.5t62.5 25.5q59 0 83 -51.5t17 -134.5q-10 -127 -104 -248q-21 -27 -52 -2q-14 13 -13 23.5t15 33.5q69 106 64 203q-44 -1 -71 24.5t-27 63.5z" />
<glyph unicode="&#x201a;" horiz-adv-x="436" d="M123 55q0 37 25.5 62.5t62.5 25.5q59 0 83 -51.5t17 -134.5q-10 -127 -104 -248q-20 -26 -51 -2q-14 13 -13 23.5t15 33.5q68 104 63 203q-44 -1 -71 24.5t-27 63.5z" />
<glyph unicode="&#x201c;" horiz-adv-x="804" d="M156 1245q10 127 104 248q20 26 51 2q15 -12 15.5 -23.5t-13.5 -33.5q-72 -110 -67 -203q44 1 71 -24.5t27 -63.5q0 -37 -25.5 -62.5t-62.5 -25.5q-59 0 -83 51.5t-17 134.5zM442 1245q10 125 105 248q20 26 51 2q15 -12 15.5 -23.5t-13.5 -33.5q-36 -56 -53.5 -102.5 t-14.5 -100.5q44 1 71.5 -24.5t27.5 -63.5q0 -37 -25.5 -62.5t-62.5 -25.5q-59 0 -83.5 51.5t-17.5 134.5z" />
<glyph unicode="&#x201d;" horiz-adv-x="763" d="M154 1419q0 37 25.5 62.5t62.5 25.5q59 0 83 -51.5t17 -134.5q-10 -127 -104 -248q-21 -27 -52 -2q-14 13 -13 23.5t15 33.5q69 106 64 203q-44 -1 -71 24.5t-27 63.5zM440 1419q0 37 25.5 62.5t62.5 25.5q59 0 83.5 -51.5t17.5 -134.5q-10 -125 -105 -248 q-20 -26 -51 -2q-14 13 -13 23.5t15 33.5q69 106 64 203q-44 -1 -71.5 24.5t-27.5 63.5z" />
<glyph unicode="&#x201e;" horiz-adv-x="722" d="M123 55q0 37 25.5 62.5t62.5 25.5q59 0 83 -51.5t17 -134.5q-10 -127 -104 -248q-20 -26 -51 -2q-14 13 -13 23.5t15 33.5q68 104 63 203q-44 -1 -71 24.5t-27 63.5zM410 55q0 37 25.5 62.5t62.5 25.5q59 0 83 -51.5t17 -134.5q-10 -127 -104 -248q-21 -27 -52 -2 q-14 13 -13 23.5t15 33.5q69 106 64 203q-44 -1 -71 24.5t-27 63.5z" />
<glyph unicode="&#x2022;" horiz-adv-x="557" d="M82 778q0 86 60.5 146.5t146.5 60.5t146.5 -60.5t60.5 -146.5t-60.5 -146.5t-146.5 -60.5t-146.5 60.5t-60.5 146.5z" />
<glyph unicode="&#x2026;" horiz-adv-x="1527" d="M123 55q0 37 25.5 62.5t62.5 25.5t62.5 -25.5t25.5 -62.5t-25.5 -62.5t-62.5 -25.5t-62.5 25.5t-25.5 62.5zM676 55q0 37 25.5 62.5t62.5 25.5t62.5 -25.5t25.5 -62.5t-25.5 -62.5t-62.5 -25.5t-62.5 25.5t-25.5 62.5zM1229 55q0 37 25.5 62.5t62.5 25.5t62.5 -25.5 t25.5 -62.5t-25.5 -62.5t-62.5 -25.5t-62.5 25.5t-25.5 62.5z" />
<glyph unicode="&#x202f;" horiz-adv-x="411" />
<glyph unicode="&#x2039;" horiz-adv-x="659" d="M144 588q0 20 20 43l239 274q19 21 31.5 22t38.5 -22q22 -25 21.5 -38.5t-19.5 -32.5l-235 -246l235 -246q19 -19 20 -33t-20 -39q-26 -23 -39.5 -22t-32.5 22l-239 275q-20 23 -20 43z" />
<glyph unicode="&#x203a;" horiz-adv-x="659" d="M164 309q1 14 20 33l236 246l-236 246q-19 19 -19.5 32.5t21.5 38.5q26 23 38.5 22t31.5 -22l240 -274q20 -23 20 -43t-20 -43l-240 -275q-19 -21 -32.5 -22t-39.5 22q-21 25 -20 39z" />
<glyph unicode="&#x205f;" horiz-adv-x="514" />
<glyph unicode="&#x20ac;" horiz-adv-x="1540" d="M92 535q0 26 10.5 34.5t34.5 8.5h164q-16 78 -16 153q0 81 12 154h-160q-24 0 -34.5 8.5t-10.5 34.5t10.5 34.5t34.5 8.5h178q32 114 95.5 211t154 170t214 114t265.5 41q168 0 308 -49q24 -10 30.5 -20.5t-2.5 -36.5q-11 -26 -25 -31.5t-32 2.5q-121 41 -279 41 q-235 0 -396 -122t-224 -320h637q24 0 34.5 -8.5t10.5 -34.5t-10.5 -34.5t-34.5 -8.5h-658q-15 -74 -12 -154q3 -73 19 -153h651q24 0 34.5 -8.5t10.5 -34.5t-10.5 -34.5t-34.5 -8.5h-625q69 -192 229.5 -311.5t378.5 -119.5q158 0 279 41q18 8 32 3t25 -31q9 -25 2.5 -36.5 t-30.5 -21.5q-140 -49 -308 -49q-137 0 -256.5 40t-209.5 111.5t-154.5 166t-99.5 207.5h-187q-24 0 -34.5 8.5t-10.5 34.5z" />
<glyph unicode="&#x2122;" horiz-adv-x="1873" d="M102 1438q0 23 9 30t30 7h525q21 0 30 -7t9 -30t-9 -30t-30 -7h-220v-641q0 -17 -2 -25t-11.5 -14t-29.5 -6q-28 0 -35.5 10t-7.5 35v641h-219q-21 0 -30 7t-9 30zM911 760v641q0 33 7.5 44t31.5 23q21 10 38.5 5.5t35.5 -25.5l279 -344l274 344q30 38 74 20 q39 -19 39 -67v-641q0 -17 -2 -25t-11.5 -14t-29.5 -6q-28 0 -35.5 10t-7.5 35v592l-265 -324q-37 -43 -73 0l-269 328v-596q0 -17 -2 -25t-11.5 -14t-29.5 -6q-28 0 -35.5 10t-7.5 35z" />
<glyph unicode="&#x25fc;" horiz-adv-x="952" d="M0 0v952h952v-952h-952z" />
</font>
</defs>
</svg>
